<svg width="200" height="82" viewBox="0 0 200 82" fill="none" xmlns="http://www.w3.org/2000/svg">
<rect x="15.8756" y="51.8863" width="26.7176" height="24.0071" fill="#48CAE4"/>
<path d="M13.5524 25.9432C17.645 32.6959 25.4211 51.9075 23.784 74.7318" stroke="#28A735"/>
<path d="M13.5524 25.9432C17.645 32.6959 25.4211 51.9075 23.784 74.7318" stroke="#28A735"/>
<path d="M13.5524 25.9432C17.645 32.6959 25.4211 51.9075 23.784 74.7318" stroke="#28A735"/>
<path d="M13.5524 25.9432C17.645 32.6959 25.4211 51.9075 23.784 74.7318" stroke="#28A735"/>
<path d="M6.96985 39.5799C14.9722 38.6765 28.5762 44.6524 18.9734 75.7842" stroke="#028216"/>
<path d="M45.3037 28.2664C41.211 35.1264 33.435 54.6429 35.072 77.8295" stroke="#28A735"/>
<path d="M24.7815 22.8455C27.0552 30.027 31.3752 50.4583 30.4658 74.7318" stroke="#158420"/>
<path d="M46.4653 6.9698C36.0063 16.4558 16.1341 43.4435 20.3177 75.5062" stroke="#28A735"/>
<path d="M33.2927 10.4495C33.2816 10.4057 33.2624 10.3823 33.2349 10.3556C33.1691 10.2821 33.095 10.2053 33.0291 10.1318C32.9743 10.0784 32.9303 10.0215 32.8755 9.96812C32.7904 9.8712 32.7846 9.76653 32.8416 9.67123C32.8661 9.63376 32.9015 9.59278 32.9342 9.55859C33.1249 9.39068 33.3624 9.29652 33.6384 9.24918C33.7312 9.23114 33.8324 9.24002 33.9281 9.26248C34.0485 9.29478 34.1581 9.35423 34.2322 9.45467C34.2762 9.51156 34.3174 9.57525 34.3586 9.63893C34.4219 9.74288 34.4769 9.84356 34.5401 9.94751C34.5868 10.0213 34.6363 10.0882 34.683 10.162C34.7022 10.1854 34.7214 10.2088 34.7489 10.2355C34.7679 10.2116 34.7761 10.1912 34.7733 10.1744C34.7785 10.1135 34.7701 10.0629 34.748 9.99899C34.726 9.93507 34.6956 9.86787 34.6653 9.80068C34.6322 9.71662 34.5964 9.63936 34.5633 9.55531C34.5495 9.51831 34.5385 9.47453 34.5356 9.43402C34.527 9.33615 34.5651 9.26473 34.6524 9.21297C34.6905 9.18885 34.7451 9.17128 34.797 9.1605C34.9664 9.11786 35.1495 9.11222 35.3272 9.12015C35.5787 9.13393 35.8194 9.17487 36.0738 9.22916C36.1094 9.23547 36.1449 9.24179 36.1778 9.2549C36.3064 9.29047 36.3832 9.36047 36.4355 9.46793C36.4713 9.5452 36.4798 9.61942 36.4882 9.69364C36.4941 9.82195 36.4918 9.94699 36.4977 10.0753C36.5008 10.1631 36.512 10.2542 36.5342 10.3418C36.5536 10.4125 36.5812 10.4865 36.6388 10.5567C36.691 10.6169 36.754 10.6499 36.8278 10.6557C36.9098 10.6648 36.9699 10.6337 36.9723 10.5559C36.9777 10.5187 36.9721 10.485 36.9665 10.4513C36.9471 10.3806 36.9195 10.3066 36.8919 10.2326C36.845 10.1115 36.7981 9.9905 36.7731 9.86242C36.7675 9.82871 36.7646 9.7882 36.759 9.75448C36.7586 9.63624 36.8349 9.56434 36.9716 9.55589C37.059 9.55143 37.1493 9.56383 37.2368 9.58302C37.6691 9.69253 38.0606 9.88026 38.4278 10.1291C38.6662 10.2951 38.8855 10.4849 39.0912 10.6851C39.4149 10.9953 39.703 11.3228 39.9503 11.6813C40.0355 11.8019 40.1097 11.9259 40.1812 12.0568C40.2198 12.1273 40.2583 12.1978 40.2995 12.2615C40.393 12.4089 40.5218 12.5155 40.7079 12.574C40.7763 12.5934 40.8147 12.6402 40.8286 12.7009C40.837 12.7514 40.8371 12.7987 40.8182 12.8463C40.7884 12.921 40.7119 12.9456 40.6243 12.9027C40.5613 12.8697 40.501 12.8299 40.4298 12.7936C40.3751 12.7639 40.3312 12.7307 40.2737 12.7077C40.2025 12.6715 40.1287 12.6656 40.0605 12.6935C40.0031 12.7178 39.9458 12.7422 39.8967 12.7698C39.7385 12.8563 39.5775 12.9495 39.4193 13.0359C39.1901 13.157 38.9389 13.2378 38.663 13.2851C38.551 13.3034 38.4417 13.3149 38.3323 13.3028C38.242 13.2904 38.149 13.2611 38.075 13.208C38.001 13.1548 37.9407 13.0914 37.9349 13.0104C37.9293 12.9766 37.9429 12.9427 37.9482 12.9055C37.9644 12.8411 38.0052 12.7865 38.0542 12.7352C38.0923 12.6875 38.1331 12.6329 38.1712 12.5851C38.2093 12.5373 38.2365 12.4931 38.2418 12.4322C38.2417 12.4086 38.2443 12.3781 38.2442 12.3545C38.2359 12.3039 38.1975 12.2807 38.1484 12.3084C38.1129 12.3257 38.083 12.3531 38.0557 12.3737C38.0067 12.425 37.9659 12.4795 37.9415 12.5407C37.8926 12.6392 37.8575 12.7512 37.825 12.8563C37.8169 12.8767 37.8088 12.8971 37.8034 12.9106C37.7736 13.009 37.6973 13.0809 37.5881 13.116C37.4653 13.1615 37.3232 13.1835 37.1866 13.1919C36.9789 13.2114 36.7602 13.2107 36.5497 13.1897C36.484 13.1871 36.4239 13.171 36.3691 13.1412C36.2404 13.082 36.1717 12.9917 36.1631 12.8701C36.1546 12.7723 36.1789 12.6875 36.195 12.5995C36.2029 12.5318 36.2218 12.4606 36.2298 12.3929C36.2323 12.3388 36.2267 12.2815 36.221 12.2241C36.2209 12.2005 36.2044 12.1703 36.1852 12.1468C36.1605 12.1134 36.1276 12.1003 36.0921 12.1176C36.0457 12.1384 36.0104 12.1794 36.0023 12.2234C35.9943 12.2675 35.9944 12.3148 35.9946 12.3621C35.9977 12.4735 36.0008 12.585 36.0067 12.6896C36.0095 12.7301 36.0015 12.7742 35.9935 12.8182C35.9747 12.913 35.912 12.9746 35.8192 13.0163C35.7373 13.0545 35.6472 13.0657 35.546 13.0568C35.4339 13.0515 35.3136 13.0428 35.196 13.0274C34.9335 12.9935 34.6681 12.9427 34.4055 12.8851C34.2578 12.8498 34.1156 12.8245 33.9678 12.7892C33.8557 12.7602 33.7462 12.7244 33.6367 12.6886C33.5191 12.6495 33.4122 12.5832 33.3163 12.5135C33.2724 12.4802 33.2368 12.4503 33.2039 12.4135C33.1243 12.3266 33.1075 12.2255 33.1455 12.1304C33.1672 12.0761 33.2053 12.0283 33.2516 11.9838C33.2952 11.9461 33.3415 11.9016 33.3851 11.8639C33.4423 11.8159 33.4886 11.7714 33.524 11.7068C33.5484 11.6693 33.5647 11.6286 33.5536 11.5848C33.5535 11.5612 33.5452 11.5342 33.526 11.5108C33.4958 11.4673 33.4574 11.4441 33.3973 11.4516C33.3481 11.4556 33.3127 11.4729 33.2854 11.4935C33.2336 11.528 33.1955 11.5757 33.1656 11.6268C33.1303 11.6914 33.0923 11.7628 33.0569 11.8275C33.0162 11.9057 32.981 11.9939 32.9403 12.0722C32.8724 12.2183 32.747 12.2942 32.5583 12.2897C32.4736 12.2874 32.3806 12.2818 32.2986 12.2727C32.0361 12.2388 31.7681 12.2184 31.5029 12.215C31.4455 12.2157 31.3908 12.2096 31.3252 12.207C31.1858 12.1986 31.0926 12.1221 31.0867 11.9938C31.0808 11.8891 31.1024 11.7875 31.1403 11.6924C31.2295 11.421 31.3599 11.166 31.523 10.9241C31.572 10.8492 31.6209 10.7742 31.6698 10.6993C31.7759 10.5291 31.8956 10.3722 32.0317 10.2218C32.0508 10.1979 32.078 10.1773 32.0998 10.1467C32.1951 10.0509 32.3263 10.0324 32.474 10.0677C32.6628 10.1194 32.8298 10.2018 33.0024 10.2943C33.0654 10.3273 33.1338 10.3703 33.1968 10.4034C33.2434 10.4298 33.268 10.4396 33.2927 10.4495Z" fill="#7ABA46"/>
<path d="M14.0157 37.9203C14.0081 37.8894 13.9948 37.8729 13.9757 37.8541C13.9299 37.8024 13.8784 37.7484 13.8326 37.6967C13.7944 37.6592 13.7639 37.6191 13.7257 37.5816C13.6666 37.5134 13.6629 37.4395 13.7031 37.3719C13.7204 37.3454 13.7453 37.3163 13.7682 37.292C13.9022 37.1727 14.0686 37.1053 14.2617 37.0708C14.3267 37.0578 14.3974 37.0637 14.4642 37.0792C14.5483 37.1016 14.6247 37.1432 14.6762 37.2139C14.7067 37.254 14.7353 37.2988 14.7639 37.3437C14.8077 37.4169 14.8458 37.4879 14.8897 37.5611C14.9221 37.6131 14.9564 37.6602 14.9888 37.7122C15.0022 37.7286 15.0155 37.7451 15.0346 37.7639C15.048 37.7469 15.0537 37.7325 15.0519 37.7206C15.0557 37.6776 15.0501 37.6418 15.0348 37.5968C15.0196 37.5517 14.9987 37.5043 14.9777 37.4569C14.9549 37.3976 14.9301 37.3432 14.9073 37.2839C14.8978 37.2578 14.8902 37.2269 14.8883 37.1983C14.8827 37.1291 14.9095 37.0785 14.9707 37.0416C14.9975 37.0245 15.0358 37.0119 15.0721 37.0041C15.1906 36.9733 15.3187 36.9687 15.4429 36.9737C15.6187 36.9825 15.7869 37.0106 15.9645 37.048C15.9894 37.0524 16.0142 37.0567 16.0371 37.0658C16.1269 37.0905 16.1803 37.1397 16.2165 37.2155C16.2413 37.2699 16.2469 37.3224 16.2526 37.3748C16.2563 37.4654 16.2542 37.5538 16.2579 37.6445C16.2597 37.7065 16.2673 37.7708 16.2825 37.8326C16.2958 37.8825 16.3148 37.9347 16.3548 37.9841C16.3911 38.0265 16.435 38.0496 16.4866 38.0534C16.5439 38.0596 16.586 38.0374 16.588 37.9824C16.5919 37.9561 16.5881 37.9323 16.5843 37.9085C16.571 37.8586 16.552 37.8064 16.5329 37.7542C16.5006 37.6688 16.4682 37.5835 16.4512 37.493C16.4474 37.4692 16.4455 37.4406 16.4417 37.4168C16.4419 37.3333 16.4955 37.2822 16.591 37.2757C16.6522 37.2723 16.7152 37.2807 16.7764 37.2939C17.0782 37.3698 17.3513 37.5011 17.6071 37.6756C17.7732 37.7921 17.9259 37.9254 18.069 38.0662C18.2942 38.2842 18.4945 38.5146 18.6661 38.7671C18.7252 38.852 18.7767 38.9394 18.8262 39.0316C18.8529 39.0813 18.8796 39.1309 18.9082 39.1758C18.973 39.2797 19.0627 39.3545 19.1926 39.3952C19.2403 39.4087 19.2671 39.4416 19.2765 39.4844C19.2822 39.5201 19.2822 39.5536 19.2687 39.5872C19.2476 39.6401 19.1941 39.6578 19.133 39.6278C19.0891 39.6047 19.0471 39.5768 18.9974 39.5514C18.9592 39.5306 18.9287 39.5073 18.8886 39.4913C18.8389 39.4659 18.7873 39.462 18.7395 39.4819C18.6994 39.4994 18.6592 39.5168 18.6248 39.5365C18.5138 39.5981 18.401 39.6646 18.29 39.7262C18.1293 39.8126 17.9534 39.8706 17.7603 39.905C17.682 39.9183 17.6055 39.9269 17.5291 39.9186C17.466 39.9102 17.4011 39.8899 17.3495 39.8526C17.298 39.8153 17.256 39.7707 17.2523 39.7134C17.2485 39.6896 17.2581 39.6656 17.262 39.6393C17.2735 39.5937 17.3022 39.555 17.3367 39.5186C17.3635 39.4847 17.3922 39.446 17.419 39.4121C17.4458 39.3782 17.465 39.3468 17.4689 39.3038C17.4689 39.2871 17.4709 39.2656 17.4709 39.2488C17.4652 39.2131 17.4385 39.1969 17.404 39.2166C17.3792 39.229 17.3581 39.2484 17.339 39.2631C17.3045 39.2995 17.2758 39.3382 17.2585 39.3815C17.224 39.4513 17.1991 39.5306 17.176 39.605C17.1702 39.6194 17.1645 39.6338 17.1607 39.6434C17.1395 39.713 17.0859 39.7641 17.0094 39.7893C16.9234 39.8219 16.824 39.838 16.7284 39.8444C16.5831 39.8589 16.4303 39.8592 16.2831 39.8451C16.2373 39.8435 16.1952 39.8323 16.157 39.8115C16.0673 39.7701 16.0196 39.7065 16.014 39.6206C16.0084 39.5515 16.0257 39.4915 16.0372 39.4293C16.043 39.3814 16.0565 39.331 16.0623 39.2832C16.0643 39.245 16.0605 39.2044 16.0568 39.1639C16.0568 39.1472 16.0454 39.1259 16.032 39.1095C16.0148 39.0859 15.9919 39.0767 15.9671 39.0891C15.9345 39.104 15.9097 39.1331 15.9039 39.1642C15.8981 39.1954 15.898 39.2288 15.898 39.2622C15.8998 39.341 15.9016 39.4197 15.9053 39.4936C15.9071 39.5223 15.9013 39.5534 15.8956 39.5845C15.8821 39.6516 15.8381 39.6954 15.773 39.7252C15.7157 39.7524 15.6526 39.7607 15.5819 39.7548C15.5035 39.7514 15.4194 39.7457 15.3373 39.7352C15.1538 39.7122 14.9685 39.6773 14.7851 39.6375C14.6819 39.6131 14.5826 39.5957 14.4794 39.5713C14.4011 39.5512 14.3247 39.5263 14.2483 39.5013C14.1661 39.4741 14.0917 39.4277 14.0249 39.3787C13.9943 39.3554 13.9695 39.3344 13.9466 39.3085C13.8913 39.2474 13.8799 39.176 13.9068 39.1087C13.9222 39.0702 13.949 39.0363 13.9815 39.0047C14.0121 38.9779 14.0447 38.9463 14.0753 38.9195C14.1155 38.8854 14.148 38.8538 14.1729 38.808C14.1902 38.7814 14.2017 38.7525 14.1941 38.7216C14.1941 38.7049 14.1884 38.6859 14.1751 38.6695C14.1541 38.6388 14.1274 38.6226 14.0853 38.6281C14.0509 38.6311 14.026 38.6434 14.0069 38.6581C13.9705 38.6826 13.9437 38.7165 13.9227 38.7527C13.8977 38.7985 13.8709 38.8491 13.846 38.8949C13.8172 38.9503 13.7923 39.0128 13.7635 39.0682C13.7156 39.1717 13.6276 39.2258 13.4957 39.2233C13.4365 39.222 13.3715 39.2184 13.3142 39.2122C13.1308 39.1892 12.9435 39.1758 12.7581 39.1743C12.718 39.175 12.6798 39.1709 12.6339 39.1693C12.5364 39.1638 12.4715 39.1101 12.4679 39.0194C12.4641 38.9455 12.4795 38.8736 12.5064 38.8063C12.5698 38.6142 12.6618 38.4335 12.7767 38.262C12.8112 38.2089 12.8457 38.1557 12.8802 38.1026C12.9549 37.9819 13.0392 37.8706 13.1349 37.7639C13.1483 37.7469 13.1674 37.7323 13.1828 37.7105C13.2498 37.6425 13.3415 37.629 13.4447 37.6534C13.5765 37.6893 13.693 37.7469 13.8133 37.8116C13.8572 37.8347 13.9049 37.8649 13.9489 37.888C13.9813 37.9066 13.9985 37.9134 14.0157 37.9203Z" fill="#7ABA46"/>
<path d="M35.9875 28.9751C35.9694 28.9419 35.9606 28.9134 35.9377 28.8898C35.8924 28.8188 35.8471 28.7478 35.797 28.6863C35.72 28.5632 35.7266 28.4583 35.8543 28.3667C35.897 28.3282 35.9441 28.304 35.9912 28.2797C36.2029 28.1825 36.4142 28.1092 36.6396 28.0309C36.7805 27.982 36.9059 28.0095 37.0115 28.099C37.2183 28.2638 37.3824 28.4671 37.499 28.7185C37.5575 28.8323 37.6019 28.9509 37.6512 29.06C37.6648 29.0789 37.6644 29.1028 37.6688 29.117L37.6829 29.1121C37.6833 29.0883 37.6789 29.074 37.6886 29.0549C37.6843 28.7882 37.6377 28.5362 37.5629 28.294C37.5542 28.2655 37.5454 28.237 37.5366 28.2085C37.5194 28.1277 37.5582 28.0512 37.6335 28.0172C37.6806 27.9929 37.7461 27.978 37.7972 27.9919C37.9416 28.0048 38.0859 28.0178 38.2303 28.0308C38.5511 28.085 38.8715 28.1631 39.1871 28.2507C39.4098 28.3154 39.6281 28.3658 39.846 28.44C39.9758 28.4817 40.1149 28.528 40.2398 28.5793C40.3371 28.6165 40.3917 28.6922 40.4224 28.7919C40.4347 28.8823 40.4519 28.9631 40.4501 29.0584C40.4522 29.1917 40.4311 29.3253 40.4284 29.4682C40.4236 29.4778 40.4279 29.492 40.4323 29.5062C40.4372 29.4967 40.4469 29.4775 40.4517 29.468C40.5006 29.3485 40.5495 29.229 40.5984 29.1094C40.6032 29.0999 40.6129 29.0807 40.6178 29.0712C40.6711 28.9659 40.7653 28.9174 40.8766 28.9497C40.9695 28.9727 41.0527 29.0148 41.131 29.0665C41.3339 29.1932 41.4989 29.3489 41.6683 29.5188C42.1263 29.9671 42.4757 30.4926 42.7303 31.0904C42.8196 31.3039 42.8948 31.5223 42.9467 31.7409C42.9555 31.7694 42.9691 31.7883 42.9968 31.8024C43.1579 31.92 43.319 32.0376 43.4703 32.1743C43.484 32.1932 43.5068 32.2168 43.5205 32.2358C43.5429 32.2832 43.5143 32.3168 43.4584 32.3125C43.4351 32.3127 43.4166 32.3034 43.4073 32.2987C43.3519 32.2706 43.292 32.2283 43.2414 32.1907C43.1539 32.1343 43.0804 32.0731 42.9928 32.0167C42.9743 32.0073 42.9558 31.998 42.9277 32.0078C42.6776 32.1577 42.4051 32.2602 42.1283 32.3484C41.7343 32.4615 41.3271 32.5319 40.9072 32.5357C40.8606 32.5361 40.8139 32.5366 40.7629 32.5227C40.7395 32.523 40.7303 32.5183 40.7118 32.5089C40.6097 32.4813 40.5833 32.3958 40.641 32.3048C40.689 32.2329 40.737 32.161 40.785 32.0891C40.8572 31.9694 40.9202 31.845 40.9695 31.7017C40.9506 31.7162 40.9365 31.721 40.9268 31.7402C40.7653 31.8988 40.6178 32.0526 40.4562 32.2112C40.4086 32.2593 40.3611 32.3073 40.3043 32.3507C40.2189 32.4277 40.1159 32.4477 40.0089 32.4296C39.744 32.3796 39.4742 32.3392 39.2092 32.2892C39.1533 32.2849 39.0979 32.2569 39.0468 32.2431C38.9311 32.1965 38.8906 32.1159 38.9254 32.0013C38.9355 31.9583 38.9598 31.9105 38.9699 31.8675C39.0245 31.6908 39.0748 31.4998 39.1202 31.3184C39.1298 31.2993 39.1303 31.2755 39.1167 31.2566C39.1021 31.2853 39.0783 31.3093 39.0638 31.338C38.9533 31.5105 38.8476 31.6733 38.7278 31.8411C38.6798 31.913 38.6226 31.9802 38.5702 32.0378C38.5416 32.0714 38.4989 32.1099 38.461 32.1388C38.3901 32.1871 38.3153 32.1973 38.2317 32.179C38.1899 32.1699 38.1529 32.1512 38.1111 32.142C37.8563 32.0491 37.5966 31.9657 37.3418 31.8728C37.2538 31.8402 37.1706 31.7981 37.0826 31.7656C37.0733 31.7609 37.0549 31.7515 37.0456 31.7469C36.9536 31.6763 36.9273 31.5908 36.9854 31.4759C37.029 31.3898 37.0818 31.3084 37.1347 31.2269C37.2117 31.0976 37.298 30.973 37.3703 30.8533C37.3751 30.8437 37.3848 30.8246 37.3804 30.8103C37.3663 30.8152 37.3566 30.8344 37.3425 30.8393C37.1766 30.9837 37.0383 31.1421 36.9093 31.3052C36.8521 31.3724 36.79 31.4491 36.7327 31.5163C36.7041 31.5499 36.6614 31.5884 36.6235 31.6173C36.5478 31.6752 36.4589 31.6903 36.3617 31.6531C36.1856 31.588 36.0144 31.5133 35.8384 31.4483C35.7504 31.4157 35.6764 31.3783 35.5932 31.3362C35.5655 31.3221 35.5426 31.2985 35.5149 31.2845C35.4414 31.2233 35.4287 31.1567 35.4723 31.0706C35.5163 30.9606 35.5745 30.8458 35.6185 30.7359C35.6379 30.6976 35.6529 30.6451 35.663 30.6021C35.6489 30.607 35.6348 30.6119 35.6251 30.631C35.4922 30.7561 35.3641 30.8715 35.2311 30.9966C35.1884 31.0351 35.1598 31.0687 35.1171 31.1071C35.0414 31.165 34.9621 31.1609 34.8838 31.1093C34.8561 31.0952 34.8424 31.0763 34.8147 31.0623C34.5529 30.8456 34.2668 30.6767 33.9667 30.5127C33.939 30.4987 33.9069 30.4704 33.8791 30.4564C33.8378 30.4234 33.8197 30.3902 33.8255 30.333C33.8273 30.2378 33.8616 30.147 33.9193 30.056C34.0739 29.7736 34.2839 29.5192 34.4935 29.2887C34.6745 29.0918 34.8831 28.9089 35.0914 28.7499C35.1482 28.7065 35.2138 28.6916 35.293 28.6957C35.4233 28.7135 35.5342 28.7697 35.6402 28.8354C35.737 28.8964 35.8198 28.9623 35.9117 29.0329C35.9597 28.9611 35.969 28.9657 35.9875 28.9751ZM35.9488 28.5468C35.9942 28.6178 36.0351 28.6746 36.076 28.7314C36.1807 28.8686 36.2383 29.03 36.2818 29.1963C36.2862 29.2105 36.295 29.239 36.2946 29.2628C36.2937 29.3105 36.2836 29.3534 36.2365 29.3777C36.1894 29.4019 36.1568 29.3974 36.1154 29.3645C36.0741 29.3315 36.0327 29.2986 36.0006 29.2703C35.8721 29.1571 35.7528 29.0487 35.6098 28.9642C35.5222 28.9079 35.4206 28.8564 35.3185 28.8288C35.2767 28.8196 35.2485 28.8294 35.2155 28.8488C35.1587 28.8921 35.116 28.9306 35.0592 28.974C34.6898 29.2679 34.3847 29.6183 34.1253 30.016C34.1156 30.0351 34.1108 30.0447 34.0962 30.0734C34.1196 30.0732 34.1337 30.0683 34.1385 30.0587C34.3406 29.9807 34.5466 29.9407 34.7574 29.8912C35.5391 29.746 36.3182 29.7436 37.1003 29.827C37.4634 29.8666 37.8309 29.9204 38.1888 29.9934C38.4722 30.0527 38.7556 30.112 39.0342 30.1809C39.234 30.222 39.4242 30.2822 39.6284 30.3375C39.9858 30.4343 40.329 30.5359 40.6719 30.6614C40.9821 30.7824 41.2924 30.9034 41.6027 31.0244C41.7369 31.0804 41.8619 31.1316 41.9913 31.1971C42.2223 31.3141 42.4437 31.4502 42.6747 31.5671C42.684 31.5718 42.6932 31.5765 42.7117 31.5859C42.6985 31.5431 42.6897 31.5146 42.6809 31.4861C42.5837 31.1965 42.4535 30.9262 42.3044 30.6704C42.0334 30.1966 41.6911 29.7949 41.2871 29.4461C41.1908 29.3612 41.0755 29.2908 40.9743 29.2156C40.9329 29.1826 40.8774 29.1545 40.8215 29.1503C40.807 29.179 40.7925 29.2077 40.7828 29.2268C40.6903 29.4325 40.607 29.6428 40.5146 29.8484C40.4903 29.8963 40.4709 29.9345 40.4375 29.9777C40.423 30.0064 40.404 30.0209 40.3851 30.0353C40.2997 30.1123 40.1883 30.08 40.1716 29.9754C40.1633 29.923 40.1646 29.8516 40.1704 29.7944C40.1871 29.6466 40.2132 29.5035 40.2299 29.3557C40.2467 29.2079 40.2542 29.0554 40.2384 28.9032C40.2305 28.827 40.194 28.7845 40.1245 28.7613C39.9018 28.6967 39.6747 28.6178 39.452 28.5531C39.0761 28.447 38.7003 28.3408 38.3191 28.2681C38.1611 28.2362 38.0027 28.2281 37.8491 28.2105C37.8165 28.206 37.7883 28.2158 37.7417 28.2162C37.7681 28.3017 37.7808 28.3682 37.7979 28.4491C37.863 28.7104 37.8907 28.9769 37.8668 29.2533C37.8611 29.3105 37.8553 29.3677 37.8311 29.4156C37.7778 29.5208 37.6797 29.5312 37.6115 29.4366C37.5842 29.3988 37.571 29.356 37.5437 29.3182C37.4764 29.1759 37.4184 29.0383 37.3511 28.896C37.2569 28.6921 37.1249 28.5171 36.9692 28.3661C36.9326 28.3236 36.8913 28.2906 36.8407 28.253C36.7993 28.22 36.7483 28.2062 36.6919 28.2257C36.4573 28.2993 36.2319 28.3776 36.0153 28.4843C36.0056 28.5034 35.9867 28.5179 35.9488 28.5468ZM42.7904 31.8661C42.7719 31.8568 42.7583 31.8379 42.7398 31.8285C42.6337 31.7628 42.5277 31.6971 42.4124 31.6267C42.2139 31.5142 42.0106 31.4113 41.8073 31.3083C41.5714 31.2009 41.3306 31.1031 41.0899 31.0053C40.6687 30.8281 40.2374 30.6939 39.8013 30.5693C39.263 30.417 38.7151 30.2839 38.1667 30.1745C37.7112 30.0882 37.246 30.021 36.7755 29.9871C36.0862 29.9267 35.4092 29.9567 34.7256 30.0915C34.5571 30.1264 34.3836 30.1708 34.2146 30.2295C34.1957 30.2439 34.1723 30.2442 34.1393 30.2635C34.4579 30.4368 34.7435 30.6295 35.0098 30.8605C35.0476 30.8315 35.0762 30.7979 35.1049 30.7643C35.2761 30.5866 35.4703 30.4324 35.6693 30.2687C35.712 30.2302 35.7732 30.201 35.8286 30.2291C35.8933 30.2619 35.8968 30.3237 35.8862 30.3905C35.8708 30.4669 35.8554 30.5432 35.8307 30.6149C35.7915 30.7152 35.7382 30.8205 35.699 30.9209C35.6796 30.9592 35.6695 31.0021 35.6453 31.05C35.673 31.064 35.6959 31.0876 35.7284 31.0921C35.9692 31.1899 36.2007 31.283 36.4414 31.3809C36.4784 31.3996 36.5065 31.3898 36.5303 31.3658C36.5541 31.3417 36.573 31.3273 36.5968 31.3033C36.654 31.2361 36.7064 31.1784 36.7637 31.1112C36.9596 30.8618 37.1828 30.6502 37.4245 30.448C37.4483 30.424 37.4862 30.395 37.5143 30.3853C37.5896 30.3512 37.6587 30.3982 37.6807 30.4695C37.6802 30.4933 37.689 30.5218 37.6793 30.5409C37.678 30.6124 37.6489 30.6698 37.615 30.7368C37.5714 30.8229 37.5234 30.8948 37.4798 30.9809C37.3931 31.1293 37.2971 31.2731 37.2011 31.4168C37.1914 31.436 37.1769 31.4647 37.1623 31.4934C37.2085 31.5168 37.2455 31.5355 37.2873 31.5446C37.4726 31.6144 37.6627 31.6746 37.848 31.7443C37.9963 31.7954 38.1305 31.8513 38.274 31.9119C38.3295 31.94 38.3717 31.9253 38.4144 31.8868C38.4431 31.8532 38.4809 31.8243 38.5095 31.7907C38.5765 31.7044 38.6341 31.6134 38.7011 31.527C38.8354 31.3305 38.9648 31.1436 39.0991 30.9471C39.1278 30.9135 39.1612 30.8704 39.1942 30.851C39.2651 30.8028 39.3439 30.8306 39.361 30.9114C39.3698 30.9399 39.3738 30.978 39.3685 31.0114C39.3579 31.0781 39.3566 31.1496 39.3367 31.2117C39.2715 31.4552 39.2015 31.7082 39.1363 31.9517C39.1266 31.9709 39.131 31.9851 39.1213 32.0042C39.1723 32.0181 39.2093 32.0368 39.2511 32.0459C39.5161 32.0959 39.7903 32.1506 40.0601 32.191C40.1111 32.2048 40.1675 32.1852 40.2053 32.1563C40.248 32.1178 40.2907 32.0793 40.3334 32.0409C40.5382 31.8199 40.7658 31.6226 40.9934 31.4253C41.0075 31.4204 41.0172 31.4012 41.0313 31.3963C41.0691 31.3674 41.1206 31.3574 41.1668 31.3808C41.213 31.4042 41.2214 31.4565 41.2205 31.5042C41.2196 31.5518 41.2095 31.5947 41.1901 31.633C41.1161 31.848 41.0143 32.049 40.8941 32.2406C40.8844 32.2597 40.8747 32.2788 40.865 32.298C41.3444 32.3603 42.4734 32.1024 42.7904 31.8661Z" fill="#5BA645"/>
<path d="M24.7929 30.2272C24.8297 30.2358 24.8568 30.2483 24.8896 30.2469C24.9728 30.2604 25.0559 30.2739 25.1352 30.2774C25.2783 30.302 25.3521 30.3768 25.3355 30.533C25.3357 30.5905 25.3224 30.6418 25.3092 30.6931C25.2406 30.9158 25.1546 31.1222 25.0629 31.3425C25.0056 31.4801 24.9016 31.5554 24.7645 31.5746C24.5038 31.6191 24.2428 31.6061 23.9777 31.5257C23.8539 31.4936 23.7358 31.4477 23.6216 31.4118C23.5984 31.4093 23.5809 31.3932 23.5673 31.3869L23.5616 31.4007C23.5791 31.4169 23.5926 31.4231 23.6005 31.4431C23.8023 31.6175 24.0213 31.7505 24.2517 31.8561C24.2789 31.8685 24.306 31.8809 24.3331 31.8933C24.4048 31.9343 24.4361 32.0142 24.4113 32.0931C24.3981 32.1443 24.3655 32.2032 24.3212 32.2321C24.2153 32.3311 24.1095 32.4302 24.0037 32.5292C23.7496 32.7324 23.478 32.9195 23.2024 33.0965C23.0059 33.2196 22.8229 33.3489 22.6225 33.462C22.5049 33.531 22.3777 33.6039 22.2562 33.663C22.1637 33.7108 22.0709 33.7011 21.976 33.6576C21.9004 33.6066 21.8287 33.5656 21.7588 33.5008C21.6579 33.4136 21.5724 33.3089 21.4676 33.2117C21.4636 33.2017 21.4501 33.1955 21.4365 33.1893C21.4404 33.1993 21.4483 33.2193 21.4522 33.2292C21.5088 33.3453 21.5654 33.4614 21.622 33.5774C21.6259 33.5874 21.6337 33.6074 21.6376 33.6174C21.6806 33.7272 21.6541 33.8298 21.5558 33.8913C21.4768 33.9453 21.39 33.9793 21.2993 34.0033C21.0696 34.0703 20.8436 34.0897 20.6041 34.1029C19.9646 34.1461 19.34 34.0567 18.7244 33.8486C18.5057 33.773 18.2927 33.6836 18.0951 33.5768C18.068 33.5643 18.0448 33.5619 18.0158 33.5732C17.8208 33.6151 17.6258 33.6569 17.423 33.6788C17.3998 33.6763 17.367 33.6777 17.3438 33.6752C17.2935 33.6604 17.2875 33.6167 17.3279 33.5778C17.3432 33.5603 17.3625 33.5527 17.3722 33.5489C17.43 33.5263 17.5015 33.5098 17.5632 33.4971C17.6636 33.4693 17.7582 33.4553 17.8586 33.4275C17.8779 33.4199 17.8972 33.4124 17.9086 33.3848C17.9633 33.0985 18.0683 32.827 18.1869 32.5616C18.3649 32.1924 18.5835 31.8418 18.8603 31.526C18.8911 31.4909 18.9218 31.4559 18.9662 31.427C18.9815 31.4094 18.9912 31.4057 19.0105 31.3981C19.0991 31.3403 19.1804 31.3776 19.2099 31.4812C19.2316 31.5649 19.2532 31.6486 19.2749 31.7323C19.3161 31.8659 19.3669 31.9957 19.441 32.1279C19.4428 32.1042 19.4486 32.0904 19.4407 32.0705C19.43 31.8443 19.4135 31.6319 19.4028 31.4057C19.3986 31.3382 19.3944 31.2707 19.3999 31.1995C19.3994 31.0845 19.453 30.9943 19.5378 30.9266C19.7515 30.7622 19.9613 30.5879 20.1751 30.4235C20.2155 30.3847 20.2733 30.362 20.3176 30.3331C20.4295 30.2778 20.5165 30.3013 20.5789 30.4036C20.6042 30.4397 20.6237 30.4897 20.649 30.5258C20.7445 30.6843 20.8535 30.8489 20.9585 31.0036C20.9664 31.0235 20.9838 31.0397 21.007 31.0422C20.9953 31.0122 20.9932 30.9785 20.9815 30.9485C20.9264 30.7512 20.8753 30.5639 20.8299 30.3628C20.8082 30.2791 20.7962 30.1917 20.7881 30.1142C20.7821 30.0705 20.7819 30.013 20.7855 29.9655C20.7967 29.8805 20.8389 29.8179 20.9083 29.7677C20.9429 29.7426 20.9815 29.7275 21.0162 29.7024C21.2552 29.5742 21.4903 29.436 21.7293 29.3078C21.8122 29.2638 21.899 29.2298 21.9819 29.1858C21.9916 29.182 22.0109 29.1745 22.0205 29.1707C22.1344 29.1491 22.2158 29.1863 22.2627 29.3062C22.2979 29.3961 22.3235 29.4897 22.3491 29.5834C22.3942 29.727 22.4297 29.8743 22.4709 30.0079C22.4748 30.0179 22.4826 30.0379 22.4962 30.0441C22.5019 30.0304 22.4941 30.0104 22.4998 29.9966C22.5026 29.7766 22.4765 29.568 22.4408 29.3631C22.4288 29.2757 22.4129 29.1783 22.4008 29.0908C22.3948 29.0471 22.3946 28.9896 22.3982 28.9421C22.4055 28.8471 22.4534 28.7707 22.546 28.7229C22.7118 28.6349 22.8815 28.5569 23.0472 28.469C23.1301 28.425 23.2073 28.3947 23.2941 28.3607C23.323 28.3494 23.3559 28.3481 23.3848 28.3367C23.4794 28.3227 23.5376 28.3575 23.5728 28.4474C23.6255 28.5535 23.6724 28.6733 23.7251 28.7794C23.7407 28.8193 23.77 28.8655 23.7952 28.9017C23.801 28.8879 23.8067 28.8741 23.7989 28.8541C23.7942 28.6717 23.7933 28.4992 23.7886 28.3168C23.7883 28.2593 23.7823 28.2155 23.7821 28.1581C23.7894 28.0631 23.8451 28.0066 23.9358 27.9826C23.9648 27.9713 23.988 27.9737 24.0169 27.9624C24.3529 27.9114 24.6694 27.8105 24.9916 27.6958C25.0205 27.6844 25.063 27.6793 25.092 27.668C25.1441 27.6591 25.1808 27.6677 25.2197 27.7101C25.2896 27.7748 25.3344 27.861 25.3639 27.9646C25.4716 28.268 25.5215 28.594 25.5539 28.9039C25.5802 29.17 25.5777 29.4475 25.5577 29.7087C25.5522 29.78 25.5196 29.8388 25.4639 29.8952C25.3638 29.9805 25.248 30.0259 25.1284 30.0612C25.0184 30.0928 24.9141 30.1106 24.8002 30.1322C24.8218 30.2159 24.8122 30.2196 24.7929 30.2272ZM25.1381 30.4836C25.0549 30.4701 24.9853 30.4628 24.9157 30.4555C24.7437 30.4423 24.5849 30.3778 24.4319 30.2995C24.4183 30.2933 24.3912 30.2809 24.3737 30.2647C24.3388 30.2323 24.3135 30.1961 24.3268 30.1449C24.3401 30.0936 24.3651 30.0723 24.4172 30.0634C24.4693 30.0544 24.5215 30.0455 24.564 30.0404C24.7339 30.0199 24.8943 30.0032 25.0525 29.9527C25.1529 29.9249 25.2589 29.8834 25.3476 29.8256C25.3822 29.8005 25.3937 29.773 25.4013 29.7355C25.4067 29.6642 25.4064 29.6067 25.4119 29.5355C25.4387 29.0642 25.3805 28.6032 25.2565 28.1449C25.2487 28.1249 25.2448 28.1149 25.2331 28.085C25.2177 28.1025 25.212 28.1163 25.2159 28.1263C25.1395 28.329 25.0321 28.5093 24.9287 28.6995C24.5164 29.3794 23.9993 29.9621 23.4162 30.49C23.1449 30.7346 22.86 30.9729 22.5673 31.1912C22.3343 31.3631 22.1012 31.5351 21.8643 31.697C21.7006 31.8187 21.5291 31.9205 21.3519 32.036C21.0417 32.2381 20.7372 32.4265 20.4153 32.5987C20.1184 32.7496 19.8215 32.9004 19.5246 33.0513C19.3935 33.1142 19.272 33.1733 19.137 33.2262C18.8959 33.3206 18.6469 33.3951 18.4058 33.4896C18.3961 33.4934 18.3865 33.4971 18.3672 33.5047C18.4079 33.5233 18.435 33.5357 18.4621 33.5482C18.7429 33.6685 19.0312 33.7514 19.3214 33.8105C19.8553 33.9239 20.383 33.9361 20.9122 33.867C21.0396 33.8516 21.1689 33.8125 21.2925 33.7871C21.3446 33.7782 21.4025 33.7556 21.4429 33.7167C21.4312 33.6867 21.4194 33.6568 21.4116 33.6368C21.3198 33.4309 21.2183 33.2287 21.1265 33.0228C21.107 32.9728 21.0913 32.9329 21.0814 32.8792C21.0697 32.8492 21.0715 32.8255 21.0733 32.8017C21.0728 32.6867 21.171 32.6252 21.2602 32.6824C21.3048 32.711 21.3572 32.7596 21.3961 32.802C21.4951 32.9129 21.5846 33.0276 21.6837 33.1386C21.7827 33.2495 21.8915 33.3567 22.0156 33.4463C22.0776 33.4911 22.1337 33.4922 22.1973 33.4557C22.3938 33.3327 22.6039 33.2158 22.8005 33.0927C23.1299 32.883 23.4594 32.6733 23.7675 32.4374C23.8965 32.3408 24.0081 32.228 24.1235 32.1252C24.1486 32.1038 24.16 32.0763 24.1908 32.0412C24.1094 32.004 24.0513 31.9692 23.9796 31.9281C23.7413 31.8026 23.5241 31.6458 23.3338 31.4439C23.2949 31.4015 23.2561 31.3591 23.2365 31.3092C23.1935 31.1993 23.2511 31.1192 23.3671 31.1313C23.4135 31.1362 23.4542 31.1548 23.5006 31.1597C23.6515 31.2042 23.7928 31.2525 23.9438 31.2971C24.1586 31.3627 24.3771 31.3808 24.5934 31.3651C24.6495 31.3662 24.7016 31.3573 24.7634 31.3446C24.8155 31.3357 24.8598 31.3068 24.8828 31.2518C24.9841 31.0278 25.0759 30.8075 25.1405 30.5749C25.1326 30.5549 25.1345 30.5311 25.1381 30.4836ZM18.1057 33.3768C18.125 33.3692 18.1482 33.3716 18.1675 33.3641C18.2872 33.3287 18.4068 33.2934 18.5361 33.2542C18.7522 33.1811 18.9644 33.098 19.1766 33.0149C19.4138 32.9104 19.6471 32.796 19.8804 32.6815C20.293 32.4853 20.6804 32.253 21.0638 32.0106C21.5358 31.7105 22.0001 31.3904 22.4468 31.0541C22.8146 30.7718 23.1746 30.4695 23.5131 30.1411C24.0172 29.6671 24.4457 29.1422 24.8004 28.5424C24.8867 28.3935 24.969 28.2345 25.0378 28.0693C25.0396 28.0456 25.055 28.028 25.0626 27.9905C24.7211 28.1128 24.3871 28.1975 24.0376 28.2423C24.0339 28.2898 24.0399 28.3335 24.0459 28.3772C24.0645 28.6234 24.0502 28.8709 24.0398 29.1284C24.0401 29.1859 24.0211 29.2509 23.9632 29.2736C23.8957 29.3 23.8472 29.2614 23.8044 29.2091C23.7578 29.1467 23.7111 29.0844 23.674 29.0182C23.6253 28.9222 23.5822 28.8123 23.5335 28.7162C23.5178 28.6763 23.4925 28.6401 23.473 28.5902C23.444 28.6015 23.4112 28.6028 23.3862 28.6242C23.1529 28.7386 22.9292 28.8493 22.6959 28.9637C22.6573 28.9788 22.6459 29.0063 22.648 29.0401C22.6501 29.0738 22.6482 29.0976 22.6503 29.1313C22.6623 29.2187 22.6704 29.2962 22.6824 29.3837C22.738 29.6959 22.7472 30.0034 22.7371 30.3184C22.7392 30.3521 22.7356 30.3996 22.7241 30.4271C22.6993 30.5059 22.6183 30.5262 22.5505 30.4951C22.533 30.4789 22.5059 30.4665 22.4981 30.4465C22.4457 30.398 22.4222 30.338 22.3948 30.2681C22.3596 30.1783 22.3379 30.0946 22.3027 30.0047C22.2498 29.8411 22.2065 29.6738 22.1632 29.5064C22.1553 29.4865 22.1436 29.4565 22.1319 29.4266C22.0837 29.4454 22.0451 29.4606 22.0104 29.4857C21.835 29.5774 21.6635 29.6792 21.488 29.7709C21.3512 29.8476 21.2201 29.9105 21.0793 29.9771C21.0214 29.9998 21.0042 30.0411 21.0045 30.0986C21.0105 30.1423 21.0069 30.1898 21.0129 30.2335C21.0327 30.341 21.0622 30.4446 21.082 30.552C21.1392 30.7831 21.1924 31.0041 21.2495 31.2352C21.2555 31.2789 21.2654 31.3326 21.2579 31.3701C21.2467 31.4551 21.1734 31.4954 21.1017 31.4543C21.0746 31.4419 21.0436 31.4195 21.0222 31.3933C20.9795 31.341 20.927 31.2924 20.8939 31.2362C20.7557 31.0254 20.6136 30.8046 20.4754 30.5938C20.4676 30.5739 20.454 30.5677 20.4462 30.5477C20.4019 30.5766 20.3633 30.5917 20.3286 30.6168C20.1149 30.7811 19.8915 30.9493 19.6817 31.1236C19.6374 31.1525 19.6145 31.2076 19.6108 31.2551C19.6111 31.3126 19.6114 31.3701 19.6116 31.4275C19.6401 31.7274 19.6357 32.0286 19.6313 32.3298C19.6256 32.3436 19.6334 32.3636 19.6277 32.3773C19.6241 32.4249 19.5972 32.4699 19.549 32.4888C19.5008 32.5077 19.4562 32.4791 19.4213 32.4467C19.3863 32.4143 19.361 32.3782 19.3454 32.3382C19.2343 32.1398 19.1521 31.9301 19.0893 31.7128C19.0814 31.6928 19.0736 31.6729 19.0658 31.6529C18.7001 31.9689 18.1406 32.983 18.1057 33.3768Z" fill="#5BA645"/>
<path d="M26.7952 8.53274C26.78 8.5471 26.78 8.5471 26.78 8.5471C26.78 8.56147 26.7648 8.57583 26.7648 8.5902C26.6886 8.86315 26.5973 9.13611 26.4754 9.38033C26.2774 9.78258 26.0033 10.1561 25.6987 10.5009C25.4246 10.8026 25.1352 11.0899 24.8306 11.3772C24.5413 11.6645 24.2367 11.9518 23.9778 12.2679C23.9473 12.311 23.9016 12.3541 23.8864 12.4116C23.8864 12.4259 23.8712 12.4403 23.8559 12.4547C23.8102 12.4834 23.7798 12.5265 23.7493 12.5696C23.6884 12.6558 23.6123 12.742 23.5513 12.8425C23.2315 13.3022 23.1097 13.8051 23.1401 14.351C23.1401 14.4659 23.1706 14.5665 23.2163 14.667C23.2315 14.6958 23.2468 14.7101 23.2772 14.7101C23.4904 14.7245 23.6732 14.7963 23.8559 14.8969C24.0082 14.9974 24.191 15.0693 24.3737 15.1124C24.4194 15.1267 24.4651 15.1411 24.5108 15.1411C24.6326 15.1698 24.7545 15.2129 24.8611 15.2704C25.0134 15.3566 25.1504 15.4571 25.2723 15.5864C25.318 15.6295 25.3027 15.6295 25.3637 15.6008C25.4246 15.5577 25.4703 15.529 25.5312 15.4859C25.7901 15.3135 26.0185 15.1124 26.2013 14.8681C26.2774 14.7819 26.3383 14.6958 26.3993 14.5952C26.8409 13.92 27.1455 13.2017 27.2369 12.4116C27.2674 12.1673 27.2674 11.9087 27.2521 11.6645C27.2369 11.4203 27.2064 11.1904 27.176 10.9462C27.1455 10.7164 27.1151 10.4865 27.0694 10.271C26.978 9.81131 26.9171 9.3516 26.8562 8.89189C26.8257 8.79133 26.8105 8.66203 26.7952 8.53274Z" fill="#EFF321"/>
<path d="M31.3641 12.6273C31.3488 12.6273 31.3336 12.6273 31.3336 12.6273C30.8463 12.7853 30.3437 12.8572 29.8411 12.8859C29.5974 12.9003 29.3538 12.9003 29.0949 12.9003C28.7903 12.9003 28.4705 12.9146 28.1659 12.9577C27.907 13.0008 27.6481 13.0727 27.4196 13.2307C27.3739 13.2594 27.3587 13.2882 27.3435 13.3313C27.1303 13.9059 26.8257 14.4374 26.4449 14.9259C26.3383 15.0552 26.2317 15.1845 26.1099 15.285C25.8967 15.4718 25.6834 15.6298 25.4398 15.7735C25.3941 15.8022 25.3941 15.8022 25.4246 15.8453C25.5768 16.147 25.6682 16.4774 25.653 16.8078C25.653 16.8509 25.653 16.8509 25.6987 16.8509C25.7748 16.8366 25.851 16.8366 25.9424 16.8366C26.2317 16.8366 26.5211 16.8222 26.8104 16.7647C27.5262 16.6498 28.1811 16.3912 28.7903 16.0177C29.0035 15.8884 29.2015 15.7447 29.369 15.5723C29.5822 15.3712 29.765 15.127 29.9325 14.8828C30.0848 14.6529 30.2219 14.4087 30.3589 14.1645C30.6635 13.6473 30.9833 13.1301 31.3336 12.6417C31.3488 12.6417 31.3641 12.6417 31.3641 12.6273Z" fill="#EFF321"/>
<path d="M15.906 16.3625C15.9212 16.3769 15.9212 16.3912 15.9212 16.3912C15.9517 16.42 15.9822 16.4343 16.0126 16.4631C16.2411 16.6354 16.4847 16.7935 16.7284 16.9371C17.1244 17.167 17.5051 17.4112 17.8554 17.6698C18.0534 17.8135 18.2666 17.9571 18.495 18.072C18.8605 18.2588 19.2565 18.3594 19.6829 18.345C19.8048 18.345 19.9114 18.3306 20.0332 18.3163C20.3683 18.2875 20.6881 18.2013 21.0079 18.0864C21.2211 18.0146 21.4191 17.914 21.6171 17.8422C21.6475 17.8278 21.6475 17.8135 21.6475 17.7847C21.6171 17.6698 21.6171 17.5549 21.6323 17.4399C21.6475 17.2388 21.6628 17.0377 21.6628 16.8366C21.6628 16.7216 21.6628 16.6067 21.678 16.4918C21.7237 16.2907 21.7846 16.0895 21.9064 15.9171C21.9217 15.9028 21.9369 15.8884 21.9369 15.874C21.876 15.874 21.8303 15.8597 21.7694 15.8309C21.6323 15.7591 21.4952 15.7017 21.3582 15.6586C21.0536 15.558 20.749 15.5293 20.4292 15.558C20.1246 15.5867 19.82 15.6586 19.5306 15.7448C19.1804 15.8597 18.8148 15.989 18.4646 16.0895C17.8249 16.2907 17.1701 16.3769 16.4847 16.3625C16.3324 16.3625 16.1801 16.3625 16.0431 16.3625C15.9974 16.3625 15.9517 16.3625 15.906 16.3625Z" fill="#EFF321"/>
<path d="M28.9426 23.2869C28.9426 23.2582 28.9273 23.2294 28.9121 23.2151C28.775 22.9278 28.6532 22.6548 28.5618 22.3531C28.4095 21.8934 28.2725 21.4337 28.1202 20.974C27.907 20.2988 27.6176 19.6523 27.2673 19.0346C27.0236 18.618 26.7038 18.2444 26.3383 17.914C26.0946 17.6842 25.7901 17.5118 25.5616 17.2675C25.5464 17.2819 25.5312 17.3106 25.5312 17.3394C25.3941 17.6554 25.1504 17.8709 24.8001 17.9571C24.7697 17.9571 24.7544 17.9715 24.7392 18.0002C24.724 18.0433 24.7088 18.0577 24.6783 18.0864C24.6631 18.1151 24.6326 18.1295 24.6174 18.1439C24.6021 18.1582 24.6021 18.1726 24.6174 18.187C24.6935 18.2732 24.7392 18.3737 24.7849 18.4743C24.922 18.8334 25.0895 19.1926 25.2266 19.5517C25.5159 20.2557 25.9119 20.9021 26.4297 21.4768C26.78 21.8503 27.1455 22.1951 27.6024 22.468C28.044 22.741 28.5009 22.9852 28.9426 23.2582C28.9273 23.2869 28.9426 23.2869 28.9426 23.2869Z" fill="#EFF321"/>
<path d="M18.9367 9.19385C18.9215 9.22258 18.9215 9.25131 18.9215 9.29441C18.9367 9.4668 18.952 9.65356 18.952 9.82595C18.9672 10.2569 18.9824 10.6879 19.0281 11.1333C19.0586 11.4637 19.1043 11.8085 19.1804 12.1389C19.3022 12.6417 19.4698 13.1301 19.7287 13.5898C20.0333 14.1358 20.4292 14.5955 20.9318 14.9977C21.2516 15.2419 21.5867 15.4574 21.9522 15.6154C21.9979 15.6298 22.0283 15.6585 22.0588 15.6873C22.0893 15.716 22.0893 15.7304 22.1349 15.6873C22.1806 15.6442 22.2263 15.6011 22.2872 15.5867C22.3177 15.5724 22.3329 15.558 22.3482 15.5149C22.4243 15.2419 22.5461 14.9977 22.7898 14.8397C22.805 14.8253 22.805 14.8253 22.805 14.7966C22.7594 14.6386 22.7289 14.4805 22.6984 14.3225C22.5918 13.8484 22.3786 13.4318 22.0588 13.0727C21.876 12.8572 21.6628 12.6992 21.4344 12.5268C21.2059 12.3544 20.9775 12.182 20.7795 11.9809C20.5663 11.751 20.3683 11.5211 20.1856 11.2769C19.7287 10.6592 19.3327 10.0271 18.9977 9.35187C18.9977 9.29441 18.9672 9.25131 18.9367 9.19385Z" fill="#EFF321"/>
<path d="M22.9726 18.5892C22.9573 18.5892 22.9421 18.5892 22.9269 18.5892C22.7593 18.5892 22.5918 18.5748 22.4395 18.5461C22.1654 18.4886 21.9369 18.3737 21.7846 18.1439C21.7694 18.1151 21.7542 18.1151 21.7237 18.1295C21.6171 18.2157 21.4953 18.2875 21.3887 18.3737C21.1145 18.5605 20.8709 18.776 20.6424 19.0202C20.2921 19.3937 20.0028 19.7816 19.7896 20.2413C19.7743 20.2844 19.7439 20.3275 19.7287 20.3706C19.3479 21.1033 18.9063 21.7928 18.3123 22.3818C18.2971 22.3962 18.2819 22.3962 18.2971 22.4106C18.3428 22.4249 18.4037 22.4249 18.4494 22.4249C18.6017 22.4393 18.7387 22.468 18.891 22.468C19.1804 22.468 19.4698 22.4106 19.7439 22.3244C20.216 22.1663 20.6272 21.9221 21.0232 21.6348C21.3887 21.3618 21.7237 21.0458 22.0435 20.7154C22.3938 20.3419 22.6527 19.9109 22.805 19.4368C22.8812 19.1638 22.9116 18.8765 22.9726 18.5892Z" fill="#EFF321"/>
<path d="M24.2823 18.3594C24.069 18.4312 23.8711 18.4743 23.6578 18.503C23.5055 18.5318 23.3533 18.5749 23.1857 18.5892C23.1553 18.5892 23.1553 18.6036 23.1705 18.6323C23.1857 18.6898 23.1857 18.7472 23.1705 18.8047C23.1705 18.8478 23.1553 18.8909 23.1553 18.9484C23.1096 19.207 23.0487 19.4799 22.9421 19.7241C22.7745 20.1407 22.5461 20.5286 22.2567 20.8734C22.1197 21.0458 21.9674 21.1895 21.7998 21.3475C21.7694 21.3762 21.7542 21.405 21.7542 21.4337C21.7542 21.5917 21.7694 21.7641 21.8151 21.9221C21.876 22.1664 21.9826 22.4106 22.0892 22.6404C22.2263 22.9421 22.3633 23.2294 22.4395 23.5455C22.4699 23.6317 22.4852 23.7179 22.5156 23.8041C22.5156 23.8041 22.5309 23.8041 22.5309 23.7897C22.5461 23.7466 22.5613 23.7035 22.5918 23.6604C22.7898 23.2007 23.0639 22.7841 23.3837 22.3962C23.5665 22.1807 23.7492 21.9509 23.9015 21.7066C24.0234 21.5199 24.13 21.3331 24.2061 21.1176C24.3432 20.7728 24.4193 20.4281 24.4498 20.0689C24.4802 19.7816 24.465 19.4943 24.4346 19.207C24.4193 19.0346 24.3889 18.8478 24.3584 18.6754C24.3279 18.5605 24.3127 18.4599 24.2823 18.3594Z" fill="#EFF321"/>
<path d="M31.3031 19.9827C31.3031 19.9684 31.2879 19.954 31.2879 19.9396C31.1813 19.796 31.0747 19.6523 30.9681 19.4943C30.8919 19.3793 30.8005 19.2788 30.7092 19.1782C30.4655 18.934 30.2218 18.7041 29.9477 18.4887C29.6735 18.2732 29.4146 18.0433 29.171 17.7847C29.0034 17.6123 28.8207 17.4543 28.6379 17.3106C28.3638 17.0952 28.0592 16.9371 27.7242 16.8222C27.6937 16.8078 27.6632 16.8078 27.6176 16.8222C27.4196 16.8797 27.2064 16.9228 26.9931 16.9659C26.5667 17.0521 26.1555 17.0808 25.7139 17.0521C25.7291 17.0808 25.7443 17.0808 25.7748 17.0952C25.8814 17.1526 25.9728 17.2101 26.0641 17.2963C26.1098 17.3394 26.1708 17.3825 26.2164 17.4112C26.5363 17.6554 26.8561 17.8996 27.115 18.2013C27.4196 18.5461 27.6785 18.9196 27.8765 19.3219C27.9069 19.3793 27.9374 19.4512 27.9678 19.5086C27.9831 19.523 27.9831 19.5374 28.0135 19.5517C28.1506 19.5661 28.2724 19.5948 28.4095 19.6092C28.6532 19.6092 28.8968 19.6236 29.1405 19.6092C29.6279 19.5948 30.1 19.681 30.5721 19.7816C30.8005 19.8391 31.029 19.9109 31.2727 19.9827C31.2574 19.9684 31.2879 19.9827 31.3031 19.9827Z" fill="#EFF321"/>
<path d="M21.876 8.51865C21.8455 8.64794 21.8303 8.76287 21.7998 8.8778C21.7389 9.13638 21.7085 9.39497 21.6628 9.63919C21.5866 10.0127 21.4953 10.3719 21.4496 10.7454C21.4191 10.9896 21.3887 11.2338 21.4191 11.478C21.4343 11.6792 21.4648 11.8659 21.5409 12.0527C21.5562 12.0958 21.5714 12.1245 21.6171 12.1532C21.678 12.1963 21.7542 12.2538 21.8151 12.3113C22.0892 12.5268 22.3177 12.771 22.4852 13.0583C22.6527 13.3169 22.7745 13.5898 22.8659 13.8915C22.8659 13.9059 22.8659 13.9203 22.8964 13.9203C22.8964 13.9059 22.8964 13.9059 22.8964 13.8915C22.9421 13.518 23.0639 13.1732 23.2619 12.8572C23.3685 12.6848 23.4751 12.5268 23.5969 12.3687C23.6426 12.3113 23.6731 12.2538 23.6426 12.1676C23.6426 12.1532 23.6426 12.1389 23.6426 12.1245C23.6274 11.9952 23.6122 11.8659 23.5817 11.7366C23.5208 11.4206 23.3837 11.1189 23.2314 10.8316C23.0791 10.5586 22.9116 10.3 22.7441 10.0414C22.4243 9.553 22.1197 9.06456 21.8912 8.53301C21.8912 8.54738 21.8912 8.53301 21.876 8.51865Z" fill="#EFF321"/>
<path d="M20.8861 18.3306C20.8557 18.345 20.8252 18.345 20.81 18.3594C20.414 18.4743 20.0028 18.5318 19.5916 18.5461C19.1652 18.5605 18.7388 18.4887 18.3428 18.345C18.2971 18.3306 18.2666 18.3306 18.2362 18.3594C18.1144 18.4312 18.0077 18.5174 17.9011 18.6036C17.5965 18.8622 17.3224 19.1351 17.0635 19.4368C16.8503 19.681 16.6371 19.9109 16.3934 20.1264C16.2411 20.2557 16.0888 20.3562 15.9213 20.4712C15.9061 20.4855 15.8756 20.4855 15.8756 20.5143C15.9365 20.5143 16.0127 20.5143 16.0736 20.5286C16.3173 20.543 16.5609 20.5574 16.8046 20.543C17.0026 20.543 17.1854 20.5286 17.3833 20.5286C17.6118 20.5286 17.825 20.4999 18.0382 20.4424C18.4951 20.3275 18.9672 20.1838 19.3936 19.9971C19.4241 19.9827 19.4393 19.9684 19.4546 19.9396C19.5307 19.796 19.6221 19.6523 19.7287 19.523C20.0333 19.1064 20.414 18.7472 20.8252 18.4312C20.8404 18.3737 20.8557 18.3594 20.8861 18.3306Z" fill="#EFF321"/>
<path d="M25.3027 24.2782C25.3027 24.2638 25.3027 24.2638 25.3027 24.2494C25.3027 24.2351 25.3027 24.2207 25.3179 24.192C25.3484 23.9908 25.3941 23.7897 25.4702 23.6029C25.5464 23.4018 25.6378 23.2007 25.7291 22.9996C25.8662 22.6835 25.9576 22.3531 26.0033 22.0083C26.0033 21.9652 26.0033 21.9365 25.9728 21.9078C25.8814 21.8072 25.8053 21.7066 25.7291 21.6061C25.5464 21.3475 25.3941 21.0602 25.257 20.7728C25.0895 20.3993 24.9372 20.0402 24.7849 19.6523C24.7849 19.6379 24.7697 19.6092 24.7544 19.5948C24.7392 19.6092 24.7392 19.6236 24.7392 19.6236C24.7544 19.8678 24.724 20.0976 24.6935 20.3419C24.6174 20.8303 24.4499 21.2757 24.191 21.6923C24.1453 21.7497 24.1453 21.8072 24.1453 21.879C24.2062 22.2094 24.3128 22.5111 24.4955 22.7984C24.5717 22.9134 24.6478 23.0283 24.7088 23.1576C24.8611 23.4449 25.0133 23.7179 25.1504 24.0052C25.1809 24.077 25.2266 24.1489 25.257 24.2207C25.2723 24.2494 25.2723 24.2638 25.3027 24.2782Z" fill="#EFF321"/>
<path d="M16.8046 13.7479C16.8198 13.7766 16.835 13.791 16.8503 13.8053C17.0178 13.9777 17.1853 14.1501 17.3224 14.3369C17.4747 14.5524 17.6422 14.7535 17.8249 14.9546C17.9772 15.127 18.1448 15.2994 18.3428 15.4287C18.4646 15.5149 18.6016 15.5724 18.7387 15.6155C18.8149 15.6298 18.8758 15.6298 18.9367 15.6155C19.3327 15.4862 19.7439 15.3569 20.1703 15.3138C20.3683 15.285 20.5815 15.2707 20.7795 15.285C20.7947 15.285 20.8099 15.285 20.8252 15.285C20.8099 15.2563 20.7947 15.2563 20.7795 15.2419C20.3835 14.969 20.0485 14.6242 19.7591 14.2507C19.7134 14.1932 19.6677 14.1645 19.6068 14.1214C19.485 14.0496 19.3479 14.0065 19.2261 13.9777C19.0128 13.9203 18.7844 13.9059 18.556 13.8915C18.2971 13.8772 18.0534 13.8772 17.7945 13.8628C17.5813 13.8484 17.3681 13.8341 17.1701 13.8053C17.0635 13.791 16.9264 13.7622 16.8046 13.7479Z" fill="#EFF321"/>
<path d="M22.8203 16.7504C22.8051 16.7504 22.7898 16.7647 22.7898 16.7791C22.6528 16.9371 22.6071 17.1095 22.5766 17.3106C22.5614 17.483 22.6375 17.5836 22.7898 17.6698C23.0183 17.7847 23.4142 17.7991 23.6427 17.5405C23.6579 17.5118 23.6884 17.4974 23.7188 17.483C23.795 17.4112 23.9016 17.3537 24.0082 17.325C24.0996 17.2963 24.2062 17.2819 24.2976 17.2675C24.4346 17.2532 24.5717 17.2532 24.6935 17.2244C24.7849 17.1957 24.8611 17.1382 24.9067 17.0664C24.9677 16.9658 24.9829 16.8653 24.9829 16.7647C24.9677 16.6211 24.9067 16.5205 24.7697 16.463C24.6631 16.4199 24.5412 16.3625 24.4194 16.3337C24.2366 16.2619 24.0843 16.1614 23.9625 16.0177C23.9321 15.9746 23.8864 15.9315 23.8407 15.8884C23.8102 15.8597 23.7645 15.8309 23.7188 15.8309C23.597 15.8166 23.4752 15.8166 23.3686 15.8309C23.0944 15.874 22.9878 15.989 22.9421 16.2475C22.9117 16.4343 22.9574 16.6211 23.064 16.7791C23.1097 16.8509 23.1706 16.9084 23.2619 16.9371C23.2924 16.9515 23.3076 16.9515 23.3229 16.9084C23.3229 16.894 23.3229 16.894 23.3381 16.8797C23.4447 16.6354 23.7493 16.6354 23.9168 16.736C24.0387 16.8222 24.0539 16.9802 23.9473 17.0951C23.8864 17.1526 23.8102 17.1957 23.7341 17.2101C23.3686 17.2963 23.0335 17.1239 22.866 16.8509C22.8508 16.8078 22.8355 16.7791 22.8203 16.7504Z" fill="#F5A57A"/>
<path d="M24.2671 17.756C24.4042 17.7703 24.526 17.7703 24.6631 17.7416C24.9677 17.6698 25.1809 17.4974 25.257 17.2101C25.2875 17.1239 25.3027 17.0233 25.3179 16.9371C25.3636 16.7647 25.3484 16.5923 25.2875 16.4199C25.2266 16.2332 25.1504 16.0608 25.059 15.8884C25.0134 15.7878 24.9372 15.7016 24.8763 15.6011C24.7697 15.4718 24.6326 15.3856 24.4651 15.3425C24.3737 15.3138 24.2671 15.2994 24.1757 15.285C23.993 15.2563 23.8254 15.1845 23.6732 15.0839C23.6275 15.0552 23.5818 15.0264 23.5361 14.9977C23.4447 14.9402 23.3381 14.9115 23.2315 14.8971C23.2163 14.8971 23.201 14.8971 23.1858 14.8971C23.0335 14.9259 22.9117 14.9833 22.8051 15.1126C22.7441 15.1988 22.6985 15.285 22.668 15.3856C22.6071 15.6154 22.6071 15.8453 22.668 16.0752C22.668 16.1039 22.6832 16.147 22.6985 16.1757C22.7289 16.1326 22.7442 16.1039 22.7594 16.0608C22.8203 15.874 22.9421 15.7447 23.1401 15.6729C23.3381 15.6011 23.5513 15.5867 23.7645 15.5867C23.9168 15.5867 24.0387 15.6442 24.1605 15.7304C24.2214 15.7735 24.2823 15.8166 24.3433 15.874C24.4346 15.9602 24.5565 16.0321 24.6783 16.0895C24.8154 16.147 24.922 16.2332 25.0286 16.3194C25.1352 16.4199 25.2113 16.5349 25.2266 16.6642C25.257 16.8222 25.2418 16.9802 25.2113 17.1526C25.1961 17.2675 25.1352 17.3537 25.059 17.4399C24.9829 17.5261 24.8915 17.5692 24.7849 17.6123C24.6631 17.6554 24.526 17.6985 24.3889 17.7273C24.3585 17.7273 24.3128 17.7273 24.2671 17.756Z" fill="#F5A57A"/>
<path d="M24.4651 18.0002C24.4499 18.0002 24.4499 18.0002 24.4346 18.0002C24.2366 18.0002 24.0539 17.9858 23.8711 17.9284C23.8407 17.914 23.8254 17.9284 23.795 17.9284C23.7341 17.9427 23.6884 17.9571 23.6275 17.9571C23.4904 17.9715 23.3381 17.9715 23.201 17.9571C22.9269 17.9427 22.6832 17.8422 22.4548 17.6698C22.3482 17.5836 22.272 17.4687 22.2568 17.3394C22.2568 17.3106 22.2416 17.2675 22.2416 17.2244C22.2263 17.1095 22.2568 17.0089 22.3025 16.9084C22.3482 16.8222 22.3939 16.7504 22.4548 16.6785C22.4852 16.6498 22.4852 16.6211 22.47 16.5923C22.47 16.578 22.4548 16.5636 22.4548 16.5636C22.3634 16.4056 22.3177 16.2475 22.3025 16.0752C22.3025 16.0321 22.3025 15.9746 22.2873 15.9171C22.272 15.9171 22.272 15.9315 22.272 15.9315C22.0893 16.1614 21.9827 16.4199 21.9979 16.7073C21.9979 16.8366 22.0131 16.9658 22.0131 17.1095C22.0284 17.2675 22.0284 17.4256 22.0588 17.5692C22.0893 17.7129 22.1197 17.8709 22.1807 18.0002C22.2568 18.1439 22.3634 18.2444 22.5157 18.3019C22.7441 18.3881 22.9726 18.4168 23.201 18.4024C23.3533 18.3881 23.5056 18.3593 23.6427 18.3306C23.8102 18.3019 23.9625 18.2732 24.13 18.2157C24.2062 18.187 24.2671 18.1582 24.328 18.1151C24.3889 18.0864 24.4194 18.0577 24.4651 18.0002Z" fill="#F5A57A"/>
<path d="M8.9342 38.1262C10.0778 37.3764 11.4318 36.2794 11.3134 35.0714C11.1689 33.7384 8.96049 34.752 7.38309 36.1406C7.54083 34.7382 7.58026 32.9192 6.59438 32.2666C5.51649 31.5445 4.88553 34.0161 4.93811 36.1822C4.00481 35.1686 2.67717 34.0161 1.58613 34.4188C0.376787 34.8631 1.8096 36.9182 3.45272 38.2234C2.12508 38.3761 0.442512 38.7372 0.0481615 39.8896C-0.372479 41.1532 2.04621 41.2643 4.0311 40.7228C3.30813 41.9169 2.53257 43.5415 3.15039 44.569C3.82078 45.7076 5.41133 43.7776 6.25261 41.8058C6.6864 43.1388 7.40938 44.7912 8.55299 44.9301C9.81491 45.0828 9.38113 42.5695 8.43469 40.6395C9.69661 41.1116 11.366 41.5559 12.181 40.695C13.0749 39.7508 10.9454 38.5428 8.9342 38.1262Z" fill="#F063D5"/>
<path d="M8.35585 33.3774C7.8169 34.1133 7.61973 35.1408 7.6986 35.4047C7.72489 35.5158 7.84319 35.5019 7.89577 35.4186C9.35487 33.544 9.17084 32.2666 8.35585 33.3774Z" fill="#CFE0D7"/>
<path d="M3.50534 33.6551C3.71566 34.5577 4.34662 35.363 4.59637 35.4602C4.70153 35.5019 4.75411 35.4047 4.72782 35.3075C4.2546 32.9331 3.18985 32.2943 3.50534 33.6551Z" fill="#CFE0D7"/>
<path d="M2.71661 38.0568C2.80862 38.0012 2.76919 37.8902 2.69032 37.8485C0.626547 36.7654 -0.503925 37.2375 0.705417 37.8346C1.48097 38.2234 2.48 38.1956 2.71661 38.0568Z" fill="#CFE0D7"/>
<path d="M3.28188 41.1255C1.19182 42.153 0.836907 43.3749 2.0331 42.7639C2.82181 42.3474 3.41333 41.5143 3.45277 41.2365C3.47906 41.1255 3.3739 41.0838 3.28188 41.1255Z" fill="#CFE0D7"/>
<path d="M6.08176 42.6806C5.54281 45.0411 6.22636 46.1103 6.51555 44.7357C6.69958 43.8331 6.44982 42.8195 6.27894 42.6112C6.20007 42.514 6.10805 42.5695 6.08176 42.6806Z" fill="#CFE0D7"/>
<path d="M9.03941 41.1255C8.93425 41.1393 8.9211 41.2504 8.98683 41.3199C10.3933 43.236 11.6158 43.3332 10.7746 42.2502C10.2093 41.5281 9.30231 41.0977 9.03941 41.1255Z" fill="#CFE0D7"/>
<path d="M11.5763 37.1959C10.6956 37.2098 9.81487 37.6819 9.67028 37.9179C9.60455 38.0151 9.68342 38.0846 9.78858 38.0984C12.0758 38.1262 12.904 37.182 11.5763 37.1959Z" fill="#CFE0D7"/>
<path d="M6.21322 37.2931C5.46395 37.2931 4.70154 37.8763 4.70154 38.6677C4.70154 39.4592 5.4508 40.3479 6.21322 40.3479C6.97563 40.3479 7.71175 39.5703 7.71175 38.7649C7.71175 37.9596 6.96248 37.2931 6.21322 37.2931Z" fill="#FBE6C1"/>
<path d="M5.33247 38.7649C5.31933 38.6539 5.18788 38.5567 5.08272 38.5705C4.97756 38.5844 4.89869 38.7094 4.91183 38.8205C4.92498 38.9316 5.04328 39.001 5.14844 38.9871C5.26675 38.9732 5.35876 38.876 5.33247 38.7649Z" fill="#B87C7C"/>
<path d="M6.80471 38.8899C6.80471 38.7788 6.69955 38.6677 6.59439 38.6677C6.48923 38.6677 6.39722 38.7788 6.39722 38.8899C6.39722 39.001 6.47609 39.1121 6.58125 39.1121C6.68641 39.0982 6.80471 38.9871 6.80471 38.8899Z" fill="#B87C7C"/>
<path d="M6.05544 38.3484C6.1606 38.3206 6.22633 38.1956 6.20004 38.0846C6.17375 37.9735 6.08173 37.8902 5.97657 37.9179C5.87141 37.9457 5.7794 38.0707 5.80569 38.1818C5.83198 38.279 5.95028 38.3623 6.05544 38.3484Z" fill="#B87C7C"/>
<path d="M6.01602 39.6953C5.93715 39.7647 5.91086 39.9174 5.97658 40.0007C6.04231 40.0841 6.17376 40.0979 6.25263 40.0285C6.3315 39.9591 6.37093 39.8341 6.31835 39.7508C6.25263 39.6675 6.10803 39.6397 6.01602 39.6953Z" fill="#B87C7C"/>
<path d="M7.29109 38.7094C7.18593 38.7233 7.10706 38.8344 7.12021 38.9454C7.13335 39.0565 7.21222 39.1537 7.31738 39.1398C7.42254 39.126 7.5277 39.001 7.51456 38.9038C7.51456 38.7927 7.39625 38.6955 7.29109 38.7094Z" fill="#B87C7C"/>
<path d="M5.39818 38.2373C5.50334 38.2234 5.59536 38.1123 5.58221 38.0012C5.56907 37.8902 5.46391 37.8069 5.35875 37.8207C5.25359 37.8346 5.16157 37.9179 5.17472 38.029C5.17472 38.1401 5.29302 38.2512 5.39818 38.2373Z" fill="#B87C7C"/>
<path d="M6.58132 37.7513C6.62075 37.6541 6.55503 37.5153 6.44987 37.4875C6.35785 37.4458 6.2264 37.4875 6.18697 37.5847C6.14753 37.6819 6.21326 37.8346 6.30527 37.8763C6.41043 37.9179 6.54188 37.8624 6.58132 37.7513Z" fill="#B87C7C"/>
<path d="M6.14745 38.9038C6.13431 38.7927 6.016 38.6955 5.91084 38.7094C5.80568 38.7233 5.72681 38.8483 5.73996 38.9593C5.7531 39.0704 5.87141 39.1398 5.97657 39.126C6.06858 39.1121 6.1606 39.0149 6.14745 38.9038Z" fill="#B87C7C"/>
<path d="M6.88358 39.4314C6.77842 39.4176 6.67326 39.5148 6.66011 39.6258C6.64697 39.7369 6.71269 39.848 6.81785 39.8619C6.92301 39.8758 7.05446 39.7786 7.06761 39.6675C7.06761 39.5703 6.98874 39.4453 6.88358 39.4314Z" fill="#B87C7C"/>
<path d="M5.49019 39.3065C5.38503 39.3065 5.26672 39.4176 5.26672 39.5286C5.26672 39.6397 5.37188 39.7508 5.47704 39.7508C5.5822 39.7508 5.67422 39.6397 5.67422 39.5286C5.67422 39.4176 5.59535 39.3065 5.49019 39.3065Z" fill="#B87C7C"/>
<path d="M7.05447 38.39C7.15963 38.3623 7.2385 38.2234 7.19906 38.1123C7.17277 38.0012 7.04132 37.9318 6.94931 37.9596C6.84415 37.9874 6.79157 38.1262 6.81786 38.2234C6.85729 38.3345 6.96245 38.4178 7.05447 38.39Z" fill="#B87C7C"/>
<path d="M50.641 5.24404C51.7336 4.5972 53.0506 3.61976 52.9309 2.55608C52.7962 1.3774 50.656 2.26859 49.1444 3.50477C49.2941 2.26859 49.324 0.673066 48.3961 0.112475C47.3634 -0.519987 46.7498 1.63613 46.7947 3.54789C45.8817 2.6567 44.6096 1.65051 43.5619 1.99549C42.3945 2.38359 43.7715 4.19473 45.3579 5.33028C44.0708 5.45965 42.4544 5.79026 42.0803 6.79644C41.6762 7.90325 43.996 8.00387 45.9266 7.52952C45.2232 8.57884 44.4898 10.0019 45.0735 10.9074C45.7321 11.9136 47.2586 10.2175 48.0668 8.47822C48.4859 9.65689 49.1743 11.0943 50.2818 11.2237C51.5091 11.353 51.0751 9.1538 50.1621 7.47203C51.3744 7.88888 52.9908 8.27698 53.784 7.51515C54.652 6.66708 52.5867 5.61776 50.641 5.24404ZM47.992 0.903052C48.3661 0.903052 48.4859 1.75113 48.1865 3.07354C48.1267 3.33228 47.9471 3.30353 47.8872 3.05917C47.3335 0.989297 47.962 0.903052 47.992 0.903052ZM45.2082 6.60958C43.2327 7.58702 42.9932 7.01206 42.9932 6.98331C42.9184 6.63833 43.7415 6.3221 45.1633 6.3221C45.4327 6.3221 45.4477 6.49459 45.2082 6.60958ZM45.6572 4.2091C43.6218 3.33228 43.9511 2.80044 43.966 2.78606C44.1905 2.51295 44.9688 2.94418 45.8518 3.99349C46.0314 4.2091 45.8967 4.32409 45.6572 4.2091ZM46.8695 8.43509C46.4355 10.5337 45.8219 10.3469 45.7919 10.3325C45.4627 10.1744 45.7321 9.35504 46.6001 8.29135C46.7647 8.09012 46.9144 8.19073 46.8695 8.43509ZM48.0219 7.11267C47.3335 7.11267 46.66 6.39397 46.66 5.73276C46.66 5.07155 47.3335 4.5972 48.0219 4.5972C48.7104 4.5972 49.3839 5.15779 49.3839 5.819C49.3839 6.48021 48.6954 7.11267 48.0219 7.11267ZM50.2669 10.3181C49.9376 10.4762 49.4288 9.75751 49.1145 8.43509C49.0546 8.17636 49.2192 8.13324 49.3988 8.3201C50.8356 9.95875 50.2968 10.3037 50.2669 10.3181ZM50.207 4.02224C51.539 2.31172 52.0179 2.74294 52.0329 2.75731C52.2574 3.03042 51.6588 3.66288 50.3866 4.25222C50.1471 4.38159 50.0573 4.22347 50.207 4.02224ZM53.0506 6.95456C52.9758 7.29954 52.0778 7.22767 50.8057 6.6527C50.5512 6.53771 50.6261 6.37959 50.8955 6.36522C53.1105 6.30772 53.0656 6.92581 53.0506 6.95456Z" fill="#7AC2A7"/>
<path d="M12.3067 15.0674C12.0752 15.1191 11.8603 15.1708 11.6619 15.2397C11.8603 9.24137 6.94975 9.74124 6.4372 14.5503C6.40414 14.7916 6.40413 15.0329 6.3876 15.2397C0.981027 13.1886 -0.0771412 18.2217 4.13899 20.2039C4.35393 20.3073 4.56888 20.3935 4.75075 20.4625C1.2125 25.1853 5.46171 27.788 8.5866 24.2201C8.75194 24.0304 8.88421 23.8581 9.01648 23.6857C12.224 28.6671 15.9276 25.237 13.6294 21.0485C13.5137 20.8244 13.398 20.6348 13.2822 20.4625C18.8211 18.8077 16.837 14.0849 12.3067 15.0674ZM8.93381 21.6345C7.52843 21.6001 6.4868 20.359 6.4868 18.8939C6.4868 17.4288 7.44576 16.2567 9.01648 16.2567C10.4219 16.2567 11.5462 17.2047 11.5462 18.8939C11.5627 20.359 10.6368 21.6863 8.93381 21.6345Z" fill="#FF6B6B" fill-opacity="0.94"/>
<path d="M13.5633 11.9992C12.8193 12.6025 12.439 13.3954 12.4225 14.4641C12.7366 14.2917 13.1665 13.9298 13.4311 13.4816C13.7121 13.0162 13.8279 12.4646 13.5633 11.9992Z" fill="#4DC698"/>
<path d="M5.27978 13.0162C5.06484 12.7921 4.8499 12.6198 4.60189 12.4991C4.35389 12.3784 4.08934 12.3095 3.75867 12.3095C3.8744 12.9128 4.22161 13.4299 4.63496 13.7746C5.04831 14.1194 5.52779 14.3262 6.12301 14.5158C6.07341 14.2917 5.97421 14.0332 5.84193 13.7574C5.6766 13.4988 5.47819 13.2403 5.27978 13.0162Z" fill="#4DC698"/>
<path d="M2.07227 21.738C2.96509 21.8069 3.77525 21.4277 4.32087 20.5831C3.65952 20.5314 2.28721 20.7038 2.07227 21.738Z" fill="#4DC698"/>
<path d="M13.6294 20.7899C13.8774 21.083 14.3404 21.4794 14.8694 21.669C15.3985 21.8586 15.9772 21.8586 16.3905 21.4622C15.5969 20.7727 14.7041 20.5314 13.6294 20.7899Z" fill="#4DC698"/>
<path d="M8.99995 24.289C8.85114 24.5303 8.71887 24.9785 8.71887 25.3921C8.71887 25.599 8.75194 25.8058 8.83461 25.9954C8.91728 26.185 9.08262 26.3574 9.28102 26.3746C9.29756 26.2023 9.33062 26.0644 9.36369 25.892C9.38023 25.7196 9.39676 25.53 9.38023 25.3577C9.33062 24.9957 9.19836 24.651 8.99995 24.289Z" fill="#4DC698"/>
<path d="M10.951 17.9287C10.4384 16.8772 9.2149 16.2395 8.20634 16.7566C7.19777 17.2909 6.60256 18.9112 7.09857 19.9454C7.61112 20.9968 9.08263 21.4967 10.0912 20.9796C11.0998 20.4625 11.447 18.9801 10.951 17.9287ZM9.33064 16.9806C9.46291 16.8945 9.64479 16.9634 9.72745 17.1013C9.81012 17.2392 9.77706 17.446 9.64479 17.5322C9.51251 17.6184 9.29757 17.5667 9.23144 17.4288C9.14877 17.2909 9.19837 17.0668 9.33064 16.9806ZM7.9418 19.704C7.87566 19.8419 7.67725 19.8764 7.54498 19.8075C7.41271 19.7385 7.33004 19.5317 7.39618 19.3938C7.46232 19.2559 7.67726 19.1869 7.80953 19.2559C7.9418 19.3248 8.00793 19.5661 7.9418 19.704ZM7.79299 18.6698C7.66072 18.7388 7.46232 18.6871 7.39618 18.5492C7.33004 18.4113 7.39618 18.1872 7.52845 18.1183C7.66072 18.0493 7.87566 18.1355 7.95833 18.2734C8.00793 18.4113 7.92526 18.5837 7.79299 18.6698ZM8.17327 17.1702C8.28901 17.0668 8.50395 17.1013 8.60315 17.2392C8.70235 17.3599 8.65275 17.6012 8.53702 17.7046C8.42128 17.808 8.23941 17.7391 8.1402 17.6184C8.02447 17.4805 8.041 17.2737 8.17327 17.1702ZM8.53702 20.6865C8.38821 20.7382 8.18981 20.6176 8.1402 20.4797C8.0906 20.3246 8.18981 20.1694 8.33861 20.1177C8.48742 20.066 8.66929 20.135 8.71889 20.2901C8.76849 20.428 8.66929 20.6176 8.53702 20.6865ZM8.48742 18.8077C8.40475 18.6698 8.42128 18.463 8.53702 18.3768C8.66929 18.2906 8.86769 18.3251 8.9669 18.4458C9.04957 18.5837 8.99996 18.8077 8.88423 18.9112C8.75196 19.0146 8.57008 18.9456 8.48742 18.8077ZM8.93383 19.6523C8.86769 19.5144 8.95036 19.3248 9.08264 19.2559C9.21491 19.1869 9.41331 19.2386 9.47945 19.3765C9.54558 19.5144 9.47944 19.7385 9.34717 19.8075C9.2149 19.8764 8.99996 19.7902 8.93383 19.6523ZM9.81012 20.8072C9.67785 20.8934 9.46291 20.8244 9.38024 20.7038C9.29757 20.5659 9.36371 20.3763 9.49598 20.2901C9.62825 20.2039 9.82666 20.2384 9.90933 20.359C9.97546 20.4969 9.94239 20.721 9.81012 20.8072ZM9.95893 18.4458C9.84319 18.5492 9.64478 18.5492 9.54558 18.4113C9.44638 18.2906 9.46291 18.0666 9.59518 17.9631C9.71092 17.8597 9.94239 17.8942 10.0416 18.0148C10.1243 18.1527 10.0747 18.3423 9.95893 18.4458ZM10.6037 19.8419C10.488 19.9454 10.2565 19.9281 10.1573 19.8247C10.0581 19.704 10.0912 19.5144 10.1904 19.3938C10.3061 19.2904 10.5045 19.2731 10.6037 19.3938C10.7195 19.5144 10.703 19.7385 10.6037 19.8419ZM10.6203 18.756C10.4715 18.7733 10.3061 18.6354 10.2896 18.4802C10.2731 18.3251 10.4219 18.1355 10.5872 18.1183C10.736 18.101 10.8683 18.2389 10.8848 18.4113C10.8848 18.5664 10.7691 18.7388 10.6203 18.756Z" fill="#FBDBA3"/>
<path d="M55.3506 24.6135C55.3185 24.6311 55.3024 24.6487 55.2863 24.6663C54.9809 25.0529 54.6433 25.3693 54.2575 25.6505C53.6949 26.0548 53.068 26.336 52.4251 26.5118C52.3286 26.547 52.2643 26.5821 52.2 26.67C52.0393 26.8985 51.8785 27.1094 51.7178 27.3203C51.2838 27.8652 50.7373 28.2343 50.0943 28.4276C49.8853 28.4804 49.6924 28.5155 49.4835 28.5507C49.2423 28.5858 49.0173 28.6034 48.7762 28.5682C48.3904 28.4979 48.0528 28.3398 47.7313 28.1288C47.233 27.7773 46.783 27.373 46.3489 26.9161C46.3007 26.8809 46.2686 26.8282 46.2204 26.8106C46.0275 26.7579 45.8506 26.6524 45.6738 26.5469C45.5613 26.4766 45.4649 26.4063 45.3363 26.3536C45.3202 26.5821 45.3363 26.8106 45.3684 27.0215C45.4488 27.7246 45.7542 28.3046 46.3329 28.6737C46.6383 28.867 46.9758 28.9901 47.3134 29.0604C48.0689 29.2186 48.8083 29.4295 49.5478 29.658C49.9014 29.7634 50.255 29.8689 50.6247 29.9216C51.2516 30.0271 51.8625 29.9568 52.4572 29.658C52.9073 29.4295 53.3252 29.1307 53.711 28.7792C54.2415 28.3046 54.6433 27.707 54.9327 27.0215C55.1899 26.4239 55.3024 25.7912 55.3828 25.1233C55.3667 24.9651 55.3828 24.8069 55.3506 24.6135Z" fill="#F35049"/>
<path d="M55.7364 25.6681C55.8168 25.6154 55.865 25.5802 55.9132 25.5451C56.2508 25.299 56.5884 25.0178 56.8456 24.6663C57.151 24.262 57.4082 23.8402 57.6332 23.3832C58.0672 22.5219 58.1637 21.6255 58.019 20.6764C57.8904 19.8503 57.585 19.0945 57.151 18.3915C56.942 18.0575 56.733 17.7411 56.5241 17.4072C56.2347 16.9502 55.9615 16.458 55.7203 15.9659C55.6078 15.7023 55.5114 15.4386 55.3989 15.175C55.1577 14.5949 54.7559 14.2082 54.2094 13.9973C53.9682 13.9094 53.7271 13.8567 53.486 13.8391C53.1645 13.8216 52.843 13.8216 52.5215 13.9094C52.3447 13.9622 52.1679 14.0501 51.9911 14.1555C52.2001 14.4016 52.3447 14.6828 52.5055 14.9465C52.6019 15.1046 52.6984 15.2628 52.7144 15.4562C52.7305 15.5441 52.7627 15.5616 52.827 15.5616C53.052 15.5968 53.277 15.6495 53.5021 15.7374C54.4183 16.0714 55.1095 16.7041 55.4953 17.6884C55.5596 17.8466 55.6239 18.0048 55.6721 18.1805C55.865 18.8133 56.0901 19.4285 56.3472 20.0436C56.4115 20.2018 56.4758 20.36 56.5241 20.5358C56.733 21.1861 56.717 21.8189 56.508 22.4692C56.3312 23.0317 56.0579 23.5238 55.7525 23.9984C55.6882 24.1038 55.6721 24.1741 55.7364 24.2796C55.7846 24.385 55.8007 24.4905 55.8007 24.596C55.8168 24.8596 55.8007 25.1233 55.7686 25.3693C55.7525 25.4572 55.7364 25.5451 55.7364 25.6681Z" fill="#C5413F"/>
<path d="M52.3127 15.5265C52.2805 15.421 52.2323 15.3507 52.168 15.2804C52.1037 15.2101 52.0555 15.1398 51.9912 15.0695C51.7179 14.6652 51.3964 14.3137 51.0428 14.0149C50.9303 13.9094 50.8017 13.8216 50.657 13.7688C50.1265 13.5579 49.5961 13.5052 49.0335 13.5931C48.3905 13.6985 47.7636 13.927 47.1528 14.2082C46.6866 14.4192 46.2205 14.6301 45.7382 14.7707C45.5453 14.8234 45.3524 14.9113 45.1595 14.9992C44.9345 15.1222 44.7416 15.298 44.5969 15.5265C44.179 16.1417 44.0022 16.8447 43.954 17.6005C43.9218 18.0223 43.954 18.4442 44.0343 18.866C44.0343 18.9012 44.0504 18.9539 44.0665 18.9891C44.0826 18.9539 44.0986 18.9363 44.1147 18.9187C44.2755 18.6375 44.4844 18.3915 44.7095 18.163C45.0953 17.7763 45.5453 17.5302 46.0115 17.2841C46.0758 17.249 46.124 17.2138 46.1562 17.1435C46.4455 16.7393 46.7991 16.4053 47.2331 16.1592C47.5546 15.9835 47.8922 15.8429 48.2458 15.7374C48.6638 15.6144 49.0656 15.5089 49.4996 15.4738C49.9658 15.4386 50.3998 15.5089 50.8177 15.7023C50.866 15.7198 50.8981 15.755 50.9624 15.7374C51.2196 15.6144 51.4929 15.5792 51.7661 15.5616C51.959 15.5441 52.1358 15.5441 52.3127 15.5265Z" fill="#C5413F"/>
<path d="M46.7669 23.2426C46.6865 23.2953 46.6383 23.3656 46.5901 23.4183C46.4293 23.6293 46.3007 23.8577 46.2043 24.1214C46.1239 24.3323 46.0757 24.5432 46.0596 24.7717C46.0275 25.2463 46.1721 25.6857 46.4133 26.09C46.6222 26.4415 46.8955 26.7227 47.2331 26.9512C47.7957 27.3555 48.4065 27.6894 49.0012 28.041C49.1781 28.1464 49.3709 28.1816 49.5638 28.164C49.8532 28.1464 50.1264 28.0761 50.3836 27.9706C50.9141 27.7773 51.3642 27.4609 51.6857 26.9336C51.766 26.8106 51.8464 26.7051 51.9268 26.5821C52.2322 26.0724 52.5697 25.5978 52.9555 25.1584C53.3092 24.7366 53.5342 24.262 53.711 23.7347C53.711 23.7171 53.7432 23.682 53.711 23.6468C53.4538 23.8929 53.1645 24.0687 52.8269 24.1565C52.7787 24.1741 52.7626 24.1917 52.7466 24.2444C52.7305 24.3147 52.6823 24.3675 52.6501 24.4202C52.3929 24.7366 52.1036 24.9651 51.7339 25.0881C51.5731 25.1408 51.4285 25.1936 51.2677 25.2287C50.9784 25.299 50.673 25.3342 50.3836 25.4221C49.6764 25.6154 48.953 25.6154 48.2457 25.4221C47.6831 25.2639 47.2331 24.9299 46.9919 24.3323C46.9116 24.1214 46.8473 23.8929 46.8151 23.6644C46.783 23.5238 46.783 23.3832 46.7669 23.2426Z" fill="#C5413F"/>
<path d="M52.7627 25.9494L52.7788 25.9669C52.9878 25.879 53.2128 25.7912 53.4218 25.6681C53.8076 25.4572 54.1451 25.176 54.4505 24.8596C55.0935 24.2444 55.5757 23.4886 55.8169 22.5747C55.9455 22.0649 55.9937 21.5552 55.9133 21.0279C55.8651 20.6764 55.7365 20.3424 55.5757 20.0085C55.3668 19.6042 55.2221 19.1648 55.0935 18.7254C54.9971 18.3387 54.8685 17.9696 54.7238 17.6005C54.5952 17.2666 54.4023 16.9678 54.1612 16.7041C53.7433 16.2471 53.245 16.0011 52.6663 15.9307C52.3126 15.8956 51.9751 15.9483 51.6375 16.0186C51.5571 16.0362 51.4928 16.0538 51.4125 16.0889C51.4125 16.1065 51.4125 16.1065 51.4286 16.1241C51.6857 16.3877 51.8304 16.7217 51.9269 17.0908C51.9751 17.3017 52.0555 17.4951 52.184 17.6532C52.2162 17.6884 52.2483 17.7411 52.2644 17.7763C52.2966 17.8466 52.3448 17.8642 52.393 17.8993C53.3575 18.2508 53.9683 18.9715 54.2576 20.0085C54.3219 20.2194 54.3541 20.4128 54.4023 20.6237C54.4505 20.8522 54.4988 21.0807 54.4827 21.3267C54.4666 21.8013 54.3541 22.2583 54.2094 22.7153C54.1773 22.8032 54.1612 22.8735 54.2094 22.9789C54.2576 23.0668 54.2576 23.1723 54.2576 23.2777C54.2416 23.6117 54.1773 23.9281 54.0487 24.2269C53.9362 24.4905 53.7915 24.7366 53.6147 24.9475C53.4539 25.1584 53.261 25.3518 53.0842 25.5451C52.9878 25.7033 52.8752 25.8263 52.7627 25.9494Z" fill="#FF5659"/>
<path d="M46.7991 22.2934C46.8312 22.2407 46.8151 22.2056 46.8312 22.1704C46.8312 21.8892 46.8312 21.608 46.8473 21.3267C46.8473 21.1685 46.8473 21.0104 46.8794 20.8522C47.008 20.0964 47.3134 19.446 47.876 18.9363C47.9403 18.8836 47.9886 18.8309 48.0529 18.8133C48.1332 18.7957 48.1654 18.7254 48.1815 18.6375C48.2618 18.2508 48.4226 17.8817 48.6476 17.5654C49.0495 17.0029 49.5639 16.7744 50.2068 16.9326C50.5122 17.0029 50.8016 17.1435 51.0749 17.3369C51.316 17.4951 51.5571 17.6532 51.8303 17.7236C51.8625 17.7236 51.8786 17.7587 51.9107 17.7236C51.8946 17.706 51.8786 17.6884 51.8786 17.6532C51.7178 17.3544 51.541 17.0732 51.3963 16.7568C51.1231 16.1768 50.6569 15.9132 50.0943 15.8604C49.6442 15.8077 49.2102 15.9307 48.7923 16.0889C48.6155 16.1592 48.4547 16.2471 48.3101 16.3702C48.0368 16.5987 47.7475 16.792 47.4581 16.9853C47.2652 17.1084 47.0884 17.2666 46.9277 17.4423C46.7026 17.6884 46.4937 17.952 46.3008 18.2333C46.0918 18.5321 45.915 18.8484 45.7864 19.2C45.6096 19.6921 45.5453 20.2194 45.6578 20.7291C45.8025 21.4498 46.2525 21.9068 46.7991 22.2934Z" fill="#F35049"/>
<path d="M49.0495 21.4322C49.0173 21.4673 49.0012 21.4849 49.0012 21.5025C48.7601 21.8364 48.6476 22.2407 48.5994 22.6625C48.5672 23.0316 48.7119 23.2777 49.0012 23.4359C49.4192 23.682 50.2068 23.7347 50.6569 23.1723C50.689 23.1195 50.7373 23.0844 50.7855 23.0316C50.9462 22.8559 51.1552 22.7328 51.3642 22.6625C51.541 22.5922 51.7178 22.5747 51.8946 22.5571C52.1518 22.5395 52.409 22.5219 52.6662 22.4516C52.843 22.3989 52.9877 22.2759 53.0841 22.1001C53.1967 21.9068 53.2288 21.6783 53.2288 21.4498C53.2127 21.1158 53.1002 20.8697 52.8109 20.7291C52.6019 20.6237 52.3769 20.5182 52.1518 20.4303C51.7982 20.2897 51.5088 20.0436 51.2838 19.7273C51.2195 19.6218 51.1391 19.5339 51.0588 19.446C50.9784 19.3406 50.8819 19.2879 50.7533 19.2879C50.7051 19.2879 50.6569 19.2879 50.6087 19.2703C50.3354 19.2703 50.0782 19.2703 49.821 19.3933C49.596 19.4988 49.4513 19.6745 49.371 19.9206C49.2102 20.4303 49.2745 20.9225 49.5317 21.397C49.596 21.5201 49.6924 21.6255 49.805 21.7134C49.8532 21.7486 49.8853 21.7661 49.9336 21.7837C49.9818 21.8013 50.0139 21.7837 50.0139 21.731C50.0139 21.7134 50.03 21.6958 50.03 21.6783C50.239 21.1334 50.8016 21.1158 51.107 21.3443C51.3963 21.5552 51.4285 21.9419 51.1713 22.2056C51.0588 22.3286 50.9302 22.3989 50.7855 22.434C50.0782 22.6098 49.4352 22.2407 49.1298 21.6431C49.1138 21.5728 49.0816 21.5201 49.0495 21.4322Z" fill="#FF5659"/>
<path d="M43.4556 17.7587C43.2466 17.9345 43.0698 18.1102 42.9412 18.3563C42.7162 18.7781 42.6197 19.2351 42.6037 19.7273C42.5715 20.5358 42.6197 21.3443 42.668 22.1352C42.684 22.5395 42.684 22.9438 42.668 23.348C42.6519 23.7171 42.6197 24.0862 42.6358 24.4553C42.6519 24.7893 42.668 25.1057 42.7805 25.4221C43.0377 26.1778 43.4235 26.8282 44.0825 27.2324C44.2272 27.3203 44.3558 27.4082 44.5004 27.4961C44.5969 27.5488 44.7094 27.6015 44.8219 27.6543C44.8219 27.584 44.7898 27.5488 44.7576 27.4961C44.5969 27.1797 44.4683 26.8457 44.4362 26.4766C44.4201 26.2481 44.4362 26.0197 44.5647 25.8263C44.5969 25.7736 44.5808 25.7384 44.5487 25.7033C44.4361 25.5627 44.3236 25.4396 44.2272 25.2814C43.9057 24.7541 43.6485 24.1917 43.4556 23.5941C43.3592 23.2777 43.3109 22.9438 43.327 22.6098C43.3431 22.3462 43.3592 22.0825 43.3913 21.8189C43.4556 21.2037 43.5842 20.6061 43.7128 20.0085C43.7289 19.9382 43.7289 19.8679 43.6807 19.8152C43.6164 19.7273 43.5681 19.6218 43.536 19.5163C43.4074 19.1648 43.3752 18.7957 43.3913 18.4266C43.4235 18.2157 43.4395 17.9872 43.4556 17.7587Z" fill="#C5413F"/>
<path d="M45.6739 18.0223C45.6257 18.0399 45.5935 18.0751 45.5453 18.1102C45.0792 18.4969 44.7577 18.9891 44.6452 19.6218C44.5166 20.3073 44.4201 20.9928 44.3237 21.6958C44.2754 22.1001 44.2272 22.5219 44.179 22.9262C44.1147 23.4711 44.1468 23.9984 44.3076 24.5257C44.4683 25.0354 44.7255 25.4572 45.1435 25.756C45.3203 25.8966 45.5132 26.0197 45.7061 26.1427C45.7221 26.1603 45.7382 26.1778 45.7704 26.1427C45.7543 26.1075 45.7382 26.0724 45.7061 26.0372C45.3685 25.5099 45.3042 24.9299 45.4167 24.2972C45.5292 23.6468 45.8668 23.1723 46.3169 22.768C46.349 22.7504 46.3812 22.7328 46.3973 22.6801C46.2526 22.5395 46.124 22.4165 45.9793 22.2759C45.5132 21.8364 45.3042 21.2564 45.256 20.5885C45.2399 20.2018 45.2721 19.8327 45.3364 19.4636C45.4167 18.9891 45.481 18.5145 45.6739 18.0751C45.6739 18.0751 45.69 18.0575 45.6739 18.0223Z" fill="#FF5659"/>
<path d="M48.8084 20.1667C48.8567 20.1491 48.8727 20.0964 48.8888 20.0612C48.921 20.0085 48.937 19.9558 48.9531 19.903C49.0656 19.4636 49.3228 19.2 49.6925 19.0242C50.0783 18.866 50.4802 18.8309 50.882 18.8484C51.1553 18.866 51.4125 18.9715 51.6375 19.1472C51.7501 19.2527 51.8786 19.3406 51.9751 19.446C52.168 19.6394 52.377 19.7976 52.602 19.9206C52.8431 20.0612 53.0842 20.237 53.2932 20.4303C53.5022 20.6413 53.6468 20.9049 53.679 21.2037C53.7272 21.5552 53.6951 21.9243 53.6629 22.2759C53.6308 22.5044 53.5343 22.7153 53.3896 22.891C53.245 23.0844 53.0521 23.1898 52.8431 23.2953C52.5698 23.4183 52.2966 23.5062 52.0072 23.5765C51.9429 23.5941 51.8786 23.5941 51.8144 23.6644C51.9751 23.6644 52.1037 23.6644 52.2323 23.6644C52.3287 23.6644 52.4252 23.6468 52.5216 23.6293C53.1003 23.5414 53.5825 23.0668 53.7272 22.4516C53.7754 22.2231 53.8237 21.9771 53.8558 21.7486C53.904 21.4673 53.904 21.1861 53.8558 20.9049C53.8076 20.6588 53.7433 20.4303 53.6468 20.2018C53.4861 19.7448 53.2932 19.3054 53.0199 18.9012C52.811 18.5848 52.5538 18.3739 52.2001 18.286C52.0555 18.2508 51.9108 18.2157 51.7501 18.1805C51.3643 18.0927 50.9946 17.9696 50.6731 17.706C50.6088 17.6532 50.5284 17.6005 50.4641 17.5478C50.2712 17.4072 50.0622 17.3369 49.8533 17.3017C49.8211 17.3017 49.789 17.3017 49.7568 17.3017C49.4675 17.372 49.2264 17.5126 49.0335 17.7763C48.9531 17.8993 48.8727 18.0575 48.8245 18.1981C48.6156 18.8836 48.6638 19.5164 48.8084 20.1667Z" fill="#C5413F"/>
<path d="M52.2001 24.2268L52.184 24.2093C51.8143 24.2093 51.4446 24.1741 51.0909 24.0335C51.0427 24.0159 50.9945 24.0159 50.9463 24.0335C50.8338 24.0687 50.7212 24.0862 50.6087 24.1038C50.3354 24.139 50.0783 24.1214 49.805 24.1038C49.2585 24.0687 48.7923 23.8402 48.3904 23.4711C48.1815 23.2777 48.0529 23.0492 48.0047 22.7504C47.9886 22.645 47.9725 22.5395 47.9725 22.434C47.9564 22.188 48.0047 21.9771 48.1172 21.7661C48.1976 21.608 48.2779 21.4498 48.3904 21.3091C48.4708 21.2213 48.4708 21.1334 48.4065 21.0279C48.3744 20.9752 48.3583 20.94 48.3422 20.8873C48.2619 20.7291 48.2136 20.5709 48.1815 20.4127C48.1333 20.1667 48.085 19.9206 48.085 19.6745C48.085 19.6394 48.1011 19.6042 48.069 19.5691C48.0529 19.5691 48.0529 19.5866 48.0529 19.5866C47.6992 20.0964 47.4903 20.6764 47.5064 21.3267C47.5224 21.608 47.5385 21.8892 47.5546 22.1704C47.5707 22.5219 47.5707 22.8559 47.635 23.2074C47.6832 23.5414 47.7475 23.8753 47.8761 24.1741C48.0207 24.4905 48.2297 24.719 48.519 24.842C48.8566 24.9826 49.1942 25.0529 49.5639 25.0529C49.8854 25.0705 50.1908 24.9826 50.4962 24.9299C50.8498 24.842 51.2195 24.7893 51.5732 24.6663C51.8143 24.5784 52.0072 24.4553 52.184 24.262C52.1679 24.2972 52.2001 24.2796 52.2001 24.2268Z" fill="#F35049"/>
<path d="M53.9906 40.4806C47.5756 34.7463 35.4467 33.7091 38.2512 75.4348" stroke="#168134"/>
<path d="M65.3148 41.394C64.8501 40.7159 65.1289 40.746 65.3458 40.1432C65.8414 38.6964 63.0535 38.0182 60.9625 40.2939C60.9316 40.3391 60.9006 40.3692 60.8541 40.4144C61.8609 38.832 62.8057 37.3099 61.3498 36.5865C60.6528 36.2399 60.0487 36.4961 59.6305 36.6166C58.8251 36.8427 58.949 36.5865 58.4069 36.2097C57.1988 35.3356 55.7429 37.4757 57.0285 39.9774C56.0837 38.9827 55.1544 38.3648 54.2406 39.2389C53.683 39.7664 53.7604 40.4144 53.7294 40.8364C53.6985 41.6502 53.4816 41.4543 52.955 41.8311C51.7314 42.6901 53.3577 44.6644 56.1766 44.2876C54.7207 44.9055 53.5591 45.5837 54.1941 46.8044C54.5503 47.4826 55.2008 47.6182 55.6035 47.7689C56.3934 48.0553 56.1456 48.1909 56.347 48.7937C56.8116 50.2104 59.3517 49.2609 59.7699 46.3824C59.9093 47.9799 60.2036 49.3363 61.6285 49.1253C62.403 49.0047 62.7437 48.4471 63.007 48.1155C63.5336 47.4675 63.5801 47.7538 64.2461 47.7538C65.7175 47.7689 65.6401 45.3124 63.2548 44.0013C64.5868 44.2424 65.671 44.1972 65.8879 42.9915C66.0118 42.238 65.5626 41.7557 65.3148 41.394Z" fill="#FFF737"/>
<path d="M59.3672 40.8967C58.0197 40.8967 56.7961 41.5598 56.7961 42.871C56.7961 44.1821 58.0197 45.3576 59.3672 45.3576C60.7147 45.3576 61.6285 44.3479 61.6285 43.0367C61.6285 41.605 60.6992 40.8967 59.3672 40.8967ZM61.2723 42.3284C60.7302 42.449 60.3275 41.8462 60.2036 41.5146C60.7302 41.59 61.1019 41.8914 61.2723 42.3284ZM59.7544 41.2132C59.615 41.5146 59.1349 41.4845 58.9181 41.4091C59.1504 41.1981 59.4602 41.1378 59.7544 41.2132ZM59.2123 42.7203C59.1504 42.9614 58.9955 43.1874 58.8871 43.308C58.7322 42.8408 58.7942 42.4188 59.0729 42.0421C59.2588 42.2229 59.2743 42.4791 59.2123 42.7203ZM58.8406 41.5749C58.6238 41.5598 58.5154 41.3187 58.4534 41.183C58.6702 41.2132 58.8251 41.379 58.8406 41.5749ZM58.1746 41.7105C58.1746 41.6653 58.1901 41.605 58.1901 41.5749C58.1901 41.5447 58.2056 41.5146 58.1901 41.4845C58.2366 41.4694 58.2985 41.5146 58.3295 41.5447C58.3605 41.59 58.3915 41.6352 58.4224 41.6653C58.4689 41.7557 58.4999 41.8462 58.5308 41.9366C58.5773 42.1174 58.5618 42.3133 58.4999 42.5093C58.283 42.4038 58.2056 42.2079 58.1746 41.9969C58.1591 41.9215 58.1591 41.816 58.1746 41.7105ZM58.0197 42.6901C58.1281 42.886 58.1901 43.1121 58.2211 43.2628C57.7719 43.1121 57.5086 42.7353 57.5086 42.2983C57.7564 42.3435 57.9113 42.4942 58.0197 42.6901ZM57.7564 41.605C57.8339 41.8914 57.4776 42.1024 57.2918 42.1777C57.3382 41.8914 57.5086 41.6954 57.7564 41.605ZM57.2143 43.1272C57.1369 43.0066 57.1214 42.871 57.1214 42.7805C57.3537 42.9162 57.4776 43.0819 57.5396 43.2929C57.4157 43.3231 57.2918 43.2477 57.2143 43.1272ZM57.6325 44.1218C57.4621 43.956 57.3847 43.6998 57.3847 43.5642C57.5861 43.6848 57.7254 43.7752 57.8648 43.8807C58.0042 43.9862 58.1127 44.1067 58.2366 44.2424C58.0662 44.3629 57.8029 44.2876 57.6325 44.1218ZM58.7477 44.1972C58.4689 44.1067 58.314 43.8656 58.2985 43.6094C58.6083 43.6396 58.7167 44.0013 58.7477 44.1972ZM59.1969 44.8301C59.1039 44.8753 58.9955 44.8904 58.8871 44.8754C58.6857 44.8452 58.5154 44.7548 58.4069 44.6945C58.5773 44.6041 58.7632 44.5739 58.9026 44.589C59.0575 44.589 59.1814 44.6192 59.3362 44.6192C59.3517 44.7096 59.2898 44.7849 59.1969 44.8301ZM59.5066 43.8204C59.4756 44.0013 59.3982 44.1972 59.3362 44.3177C59.1039 43.9862 59.1349 43.5642 59.3827 43.2779C59.5376 43.4286 59.5376 43.6245 59.5066 43.8204ZM59.8319 41.4392C59.8629 41.5297 59.8319 41.6201 59.7544 41.6804C59.6925 41.7407 59.5996 41.7859 59.5376 41.8009C59.5996 41.6201 59.6925 41.5146 59.8319 41.4392ZM60.3585 42.2531C60.2501 42.3736 60.0642 42.3887 59.9093 42.3435C59.7544 42.2983 59.615 42.1777 59.5376 42.0873C59.8783 42.027 60.1107 42.0873 60.3585 42.2531ZM60.343 43.3231C60.1416 43.3381 59.9868 43.2176 59.8783 43.0669C59.7699 42.9011 59.7235 42.7052 59.7235 42.5695C60.0642 42.7353 60.2656 42.9765 60.343 43.3231ZM60.0177 44.8603C59.8629 44.9206 59.6925 44.9206 59.5841 44.9055C59.8009 44.6794 60.0023 44.5589 60.281 44.5287C60.2965 44.6794 60.1726 44.8 60.0177 44.8603ZM60.0487 44.2725C59.8629 44.1369 59.7389 43.9259 59.7235 43.7903C60.1416 43.9108 60.3895 44.0465 60.6528 44.3027C60.4824 44.4383 60.2346 44.4082 60.0487 44.2725ZM60.8077 43.8505C60.5443 43.5943 60.7612 43.1573 60.9006 42.9765C61.04 43.2929 60.9935 43.6094 60.8077 43.8505ZM60.8077 42.675C60.9625 42.5695 61.1639 42.5846 61.3188 42.675C61.1639 42.8257 60.9161 42.7353 60.8077 42.675ZM61.04 44.3177C60.978 44.1821 61.009 44.0314 61.071 43.9108C61.1329 43.7903 61.2258 43.6697 61.2878 43.5943C61.3962 43.8656 61.2878 44.167 61.04 44.3177Z" fill="#F5A57A"/>
<path d="M62.31 38.7115C62.6198 38.5306 63.038 38.1539 63.2548 37.6716C63.4871 37.2044 63.5181 36.6619 63.1619 36.27C62.5424 36.9633 62.2636 37.6867 62.31 38.7115Z" fill="#24DD78"/>
<path d="M66.0738 44.7246C65.6401 44.4534 65.0515 44.3479 64.5559 44.5438C64.6953 44.6644 64.8502 44.8 65.0206 44.9507C65.1909 45.1014 65.3613 45.2672 65.5627 45.4179C65.9499 45.7193 66.4145 45.9755 66.9876 45.8549C66.8017 45.4028 66.5075 44.9959 66.0738 44.7246Z" fill="#24DD78"/>
<path d="M59.5067 48.1758C59.4293 48.3265 59.3518 48.5225 59.3209 48.7636C59.2899 49.0047 59.3054 49.2609 59.3828 49.5171C59.4603 49.7582 59.5997 49.9843 59.7855 50.135C59.9714 50.2857 60.2037 50.3611 60.4515 50.3309C60.3586 49.924 60.2657 49.5925 60.1108 49.2609C59.9559 48.9294 59.7545 48.5978 59.5067 48.1758Z" fill="#24DD78"/>
<path d="M53.0325 44.5438C52.4904 44.6493 52.0103 44.9507 51.8864 45.4782C52.8621 45.5837 53.714 45.3275 54.5039 44.6192C54.1477 44.5137 53.5591 44.4383 53.0325 44.5438Z" fill="#24DD78"/>
<path d="M56.0063 37.5812C55.7585 37.2044 55.3867 36.903 54.8911 36.903C54.9531 37.325 55.1234 37.7017 55.3867 38.0182C55.5107 38.1689 55.6655 38.3196 55.8514 38.4402C56.0218 38.5608 56.2231 38.6663 56.44 38.7567C56.4245 38.606 56.378 38.395 56.3006 38.1991C56.2231 37.9881 56.1302 37.762 56.0063 37.5812Z" fill="#24DD78"/>
<path d="M33.5861 45.5968C32.1041 49.7535 30.2494 61.4714 34.6866 75.089" stroke="#04B900"/>
<path d="M36.2217 39.8486C36.9177 39.0622 37.6973 37.9837 37.352 37.159C36.9605 36.2522 35.5242 37.4647 34.6395 38.7991C34.4594 37.7752 34.1022 36.4844 33.2261 36.2469C32.2664 35.9812 32.3198 37.8654 32.8196 39.3801C31.906 38.8763 30.668 38.3635 29.9375 38.8935C29.1274 39.4794 30.6359 40.6045 32.1424 41.1537C31.1818 41.5608 30 42.1948 29.95 43.096C29.904 44.0814 31.7367 43.614 33.1063 42.7846C32.8193 43.7893 32.5845 45.1092 33.265 45.6939C34.0085 46.3451 34.7879 44.6261 34.9981 43.0467C35.6059 43.8883 36.4979 44.8897 37.3828 44.7296C38.3591 44.5526 37.5005 42.8792 36.3823 41.7325C37.4265 41.7805 38.7696 41.7171 39.1962 40.9265C39.6641 40.0594 37.8146 39.6885 36.2217 39.8486Z" fill="#F063D5"/>
<path d="M34.7796 36.6324C34.533 37.2726 34.6039 38.0412 34.7189 38.2093C34.7622 38.2817 34.8478 38.2452 34.8694 38.1746C35.5623 36.5244 35.1531 35.6656 34.7796 36.6324Z" fill="#CFE0D7"/>
<path d="M31.2107 37.9223C31.5599 38.5109 32.203 38.9362 32.4105 38.9483C32.498 38.9539 32.5166 38.8736 32.4763 38.811C31.6177 37.2444 30.6855 37.0345 31.2107 37.9223Z" fill="#CFE0D7"/>
<path d="M31.5564 41.2023C31.6134 41.1424 31.5603 41.073 31.4924 41.0614C29.7186 40.7637 28.9734 41.3515 30.0048 41.4994C30.6676 41.5985 31.4089 41.3535 31.5564 41.2023Z" fill="#CFE0D7"/>
<path d="M32.6314 43.2374C31.2865 44.4331 31.2807 45.3743 32.0456 44.6739C32.547 44.2024 32.8123 43.4818 32.7828 43.2772C32.7788 43.1929 32.6913 43.1873 32.6314 43.2374Z" fill="#CFE0D7"/>
<path d="M35.0563 43.7018C35.1549 45.487 35.8934 46.0863 35.8175 45.0522C35.7633 44.3746 35.3611 43.7166 35.189 43.6084C35.1093 43.5577 35.0523 43.6176 35.0563 43.7018Z" fill="#CFE0D7"/>
<path d="M36.9378 41.9386C36.8621 41.9721 36.8759 42.0533 36.9398 42.0874C38.3991 43.1206 39.3342 42.9133 38.4747 42.3398C37.8985 41.9585 37.1285 41.8597 36.9378 41.9386Z" fill="#CFE0D7"/>
<path d="M38.0002 38.5969C37.3444 38.8054 36.786 39.3368 36.728 39.5357C36.6995 39.6191 36.7733 39.6502 36.8549 39.6363C38.5715 39.1399 38.9903 38.2876 38.0002 38.5969Z" fill="#CFE0D7"/>
<path d="M34.0094 39.8753C33.4489 40.0443 33.0026 40.6273 33.1709 41.1851C33.3391 41.7429 34.0884 42.2001 34.6587 42.0281C35.2289 41.8561 35.6142 41.1421 35.4431 40.5745C35.2719 40.0069 34.5698 39.7063 34.0094 39.8753Z" fill="#FBE6C1"/>
<path d="M33.6635 41.1113C33.63 41.0359 33.511 40.9971 33.4353 41.0306C33.3596 41.0641 33.3272 41.17 33.3606 41.2453C33.3941 41.3206 33.4973 41.3428 33.573 41.3093C33.6586 41.2729 33.7067 41.1836 33.6635 41.1113Z" fill="#B87C7C"/>
<path d="M34.7911 40.8672C34.7675 40.7889 34.6652 40.7344 34.5866 40.7581C34.5079 40.7818 34.4627 40.8808 34.4863 40.9591C34.5099 41.0374 34.5925 41.0979 34.6712 41.0742C34.7469 41.0407 34.8118 40.9357 34.7911 40.8672Z" fill="#B87C7C"/>
<path d="M34.1156 40.6546C34.1884 40.6113 34.211 40.5084 34.1677 40.436C34.1244 40.3637 34.0379 40.3257 33.9651 40.369C33.8924 40.4123 33.8501 40.5211 33.8934 40.5935C33.9337 40.6561 34.0399 40.6881 34.1156 40.6546Z" fill="#B87C7C"/>
<path d="M34.3725 41.6127C34.3282 41.6794 34.341 41.793 34.4079 41.8369C34.4748 41.8808 34.576 41.8609 34.6203 41.7942C34.6645 41.7275 34.6674 41.6305 34.6104 41.5836C34.5435 41.5398 34.4295 41.5528 34.3725 41.6127Z" fill="#B87C7C"/>
<path d="M35.1166 40.6303C35.0409 40.6638 35.0055 40.7599 35.039 40.8352C35.0724 40.9105 35.1521 40.9612 35.2278 40.9277C35.3035 40.8942 35.3556 40.7824 35.3251 40.7169C35.3015 40.6386 35.1923 40.5968 35.1166 40.6303Z" fill="#B87C7C"/>
<path d="M33.6005 40.7246C33.6762 40.6911 33.7214 40.592 33.6879 40.5167C33.6545 40.4414 33.5581 40.4064 33.4824 40.4399C33.4067 40.4734 33.3556 40.5529 33.389 40.6282C33.4126 40.7065 33.5247 40.7581 33.6005 40.7246Z" fill="#B87C7C"/>
<path d="M34.382 40.1152C34.3908 40.0378 34.3122 39.9548 34.2276 39.9589C34.1499 39.9503 34.0604 40.0093 34.0516 40.0867C34.0428 40.1641 34.1244 40.2569 34.2021 40.2655C34.2896 40.2712 34.3761 40.2024 34.382 40.1152Z" fill="#B87C7C"/>
<path d="M34.3025 41.0253C34.2691 40.9499 34.16 40.9081 34.0842 40.9416C34.0085 40.9751 33.9761 41.081 34.0096 41.1563C34.043 41.2317 34.1462 41.2539 34.222 41.2204C34.2878 41.1898 34.336 41.1006 34.3025 41.0253Z" fill="#B87C7C"/>
<path d="M34.9652 41.2311C34.8836 41.245 34.8256 41.3372 34.8394 41.4185C34.8531 41.4997 34.9259 41.5632 35.0075 41.5492C35.0891 41.5353 35.1668 41.4371 35.153 41.3559C35.1323 41.2874 35.0468 41.2171 34.9652 41.2311Z" fill="#B87C7C"/>
<path d="M33.8965 41.4573C33.8179 41.481 33.753 41.586 33.7766 41.6643C33.8002 41.7426 33.9025 41.7971 33.9811 41.7734C34.0598 41.7497 34.105 41.6507 34.0814 41.5724C34.0578 41.4941 33.9752 41.4336 33.8965 41.4573Z" fill="#B87C7C"/>
<path d="M34.8717 40.4586C34.9445 40.4153 34.9739 40.2996 34.9208 40.2302C34.8776 40.1579 34.7645 40.1386 34.7016 40.1789C34.6288 40.2222 34.619 40.332 34.6593 40.3945C34.7124 40.4639 34.8088 40.4989 34.8717 40.4586Z" fill="#B87C7C"/>
<rect x="15.8756" y="51.8863" width="26.7176" height="24.0071" fill="#48CAE4" fill-opacity="0.66"/>
<path d="M15.5969 78.9168L13.1435 76.2961L12.5302 42.9526L17.7714 42.7853L18.3848 73.787L39.0154 75.3482L41.9706 41.8374L47.1561 42.2835L44.0337 78.3592L41.19 80.7568L15.5969 78.9168Z" fill="#FF5C60"/>
<path d="M51.879 78.8052L54.1094 55.554L57.3991 53.2679L69.5545 56.5576L81.3195 53.2679L84.665 55.7213L85.8359 78.9168L80.5946 79.1956L79.5352 59.2898L71.8963 61.3529L72.0078 78.9725L66.8223 79.084L66.655 61.2971L59.0719 59.1783L57.1203 79.2513L51.879 78.8052Z" fill="#FF5C60"/>
<path d="M110.982 60.1262L99.1056 62.022L96.6522 78.4707L91.4109 77.6901L94.1988 59.3456L96.3734 57.1152L113.101 54.4946L116.168 56.9479L117.227 78.861L111.93 79.1398L110.982 60.1262Z" fill="#FF5C60"/>
<path d="M124.223 48.6399L129.297 47.246L130.97 53.4909L125.896 54.8849L124.223 48.6399ZM122.829 80.255L125.562 58.1189L130.803 58.7322L128.071 80.8683L122.829 80.255Z" fill="#FF5C60"/>
<path d="M163.607 79.4186L162.604 78.2477L139.575 81.9277L136.564 78.7495L139.798 65.9808L142.307 63.9735H159.927L158.756 55.2752L138.683 60.1819L137.401 55.1079L160.317 49.4763L163.551 51.7066L166.674 74.8464L170.577 75.9616L169.183 80.9798L163.607 79.4186ZM161.154 73.1179L160.652 69.2706H144.371L142.642 76.0731L161.154 73.1179Z" fill="#FF5C60"/>
<path d="M194.814 56L198.048 58.2861L200 80.1434L194.759 80.6453L193.086 61.7432L181.544 64.5311L179.146 80.9798L173.905 80.255L179.704 41.5029L184.834 42.2277L182.38 58.8995L194.814 56Z" fill="#FF5C60"/>
</svg>
